<?xml version="1.0" encoding="utf-8"?>
<!-- Generator: Adobe Illustrator 19.0.0, SVG Export Plug-In . SVG Version: 6.00 Build 0)  -->
<svg version="1.1" xmlns="http://www.w3.org/2000/svg" xmlns:xlink="http://www.w3.org/1999/xlink" x="0px" y="0px"
	 viewBox="0 0 500 500" style="enable-background:new 0 0 500 500;" xml:space="preserve">
<style type="text/css">
	.st0{display:none;}
	.st1{display:inline;fill:#843875;}
	.st2{display:inline;}
	.st3{fill:#FFFFFF;}
	.st4{display:inline;fill:none;stroke:#FFFFFF;stroke-width:4;stroke-linecap:round;stroke-linejoin:round;stroke-miterlimit:10;}
	.st5{fill:#843875;}
	.st6{display:inline;fill:none;}
	.st7{display:inline;fill:#FFFFFF;}
</style>
<g id="Scroll" class="st0">
	<circle id="XMLID_1_" class="st1" cx="248.5" cy="248.5" r="223.5"/>
	<g id="XMLID_5_" class="st2">
		<path id="XMLID_3_" class="st3" d="M118.5,231.4c-1.7,0-3.2-0.2-4.4-0.5c-1.3-0.4-2.4-0.8-3.2-1.5c-0.9-0.6-1.5-1.4-2-2.3
			c-0.4-0.9-0.7-1.9-0.7-3c0-1,0.3-1.9,1-2.5c0.6-0.6,1.6-1,2.8-1c0.1,1.1,0.2,2.1,0.5,3.1c0.3,1,0.7,1.9,1.2,2.6
			c0.6,0.8,1.3,1.4,2.1,1.8s1.9,0.7,3.1,0.7c2.3,0,4.1-0.6,5.4-1.7c1.3-1.1,2-2.7,2-4.8c0-0.9-0.1-1.8-0.4-2.5
			c-0.3-0.7-0.7-1.4-1.3-2c-0.6-0.6-1.4-1.2-2.5-1.8c-1-0.6-2.3-1.2-3.8-1.8c-1.6-0.7-3-1.4-4.2-2.1c-1.2-0.7-2.2-1.6-3-2.5
			c-0.8-0.9-1.4-1.9-1.8-3.1c-0.4-1.1-0.6-2.4-0.6-3.8c0-1.5,0.3-2.8,0.8-4c0.6-1.2,1.3-2.1,2.4-2.9c1-0.8,2.2-1.4,3.6-1.8
			c1.4-0.4,2.9-0.6,4.5-0.6c1.5,0,2.9,0.2,4.1,0.5c1.2,0.3,2.2,0.7,3,1.3c0.8,0.5,1.4,1.2,1.9,1.9c0.4,0.7,0.6,1.4,0.6,2.2
			c0,1.1-0.4,1.9-1.1,2.5c-0.7,0.6-1.7,0.8-3,0.8c0-0.8-0.1-1.6-0.3-2.4s-0.5-1.5-1-2.1c-0.5-0.6-1-1.1-1.8-1.5
			c-0.7-0.4-1.7-0.6-2.7-0.6c-1,0-1.9,0.1-2.7,0.4c-0.8,0.3-1.4,0.7-2,1.2c-0.5,0.5-0.9,1.1-1.2,1.9c-0.3,0.7-0.4,1.5-0.4,2.4
			c0,1,0.1,1.9,0.4,2.7c0.3,0.8,0.7,1.5,1.3,2.1s1.5,1.2,2.5,1.8c1,0.6,2.3,1.1,3.8,1.7c1.5,0.6,2.9,1.3,4,2s2.2,1.5,3,2.3
			c0.8,0.8,1.5,1.8,1.9,2.8c0.4,1,0.7,2.2,0.7,3.6c0,1.6-0.3,3.1-0.9,4.4c-0.6,1.3-1.4,2.4-2.6,3.3c-1.1,0.9-2.4,1.6-4,2
			C122.2,231.2,120.4,231.4,118.5,231.4z"/>
		<path id="XMLID_7_" class="st3" d="M171.3,193.6c1.8,0,3.3,0.1,4.6,0.4c1.3,0.3,2.4,0.7,3.2,1.2c0.9,0.5,1.5,1.1,1.9,1.8
			c0.4,0.7,0.6,1.5,0.6,2.3c0,0.6-0.1,1.1-0.3,1.5s-0.5,0.8-0.9,1.1c-0.4,0.3-0.9,0.6-1.4,0.7c-0.5,0.2-1.1,0.3-1.8,0.3
			c0-0.8-0.1-1.6-0.3-2.4c-0.2-0.8-0.6-1.5-1-2.1c-0.5-0.6-1.1-1.1-1.9-1.5c-0.8-0.4-1.7-0.6-2.8-0.6c-1.9,0-3.6,0.4-5,1.1
			s-2.5,1.8-3.3,3.1s-1.5,3.1-1.9,5.1c-0.4,2-0.6,4.3-0.6,6.9c0,2.3,0.2,4.4,0.6,6.3s1,3.6,1.9,4.9c0.9,1.4,2,2.4,3.3,3.2
			c1.4,0.8,3,1.1,4.9,1.1c1.3,0,2.4-0.1,3.3-0.4c1-0.2,1.8-0.6,2.6-1c0.7-0.4,1.4-0.9,2-1.4c0.6-0.5,1.1-1.1,1.5-1.6
			c0.3,0.2,0.5,0.4,0.7,0.8c0.2,0.3,0.3,0.7,0.3,1.3c0,0.7-0.2,1.3-0.7,2s-1.1,1.3-2,1.9c-0.9,0.6-2.1,1-3.4,1.4
			c-1.4,0.4-3,0.5-5,0.5c-2.6,0-4.8-0.5-6.8-1.4c-1.9-0.9-3.6-2.2-4.9-3.9s-2.3-3.7-3-6c-0.7-2.3-1-4.9-1-7.8c0-2.8,0.4-5.3,1.1-7.7
			c0.7-2.3,1.7-4.3,3.1-6c1.4-1.7,3.1-3,5.2-3.9C166.2,194,168.6,193.6,171.3,193.6z"/>
		<path id="XMLID_9_" class="st3" d="M230.1,224.6c0.9,1.4,1.7,2.4,2.5,3.1c0.8,0.7,1.8,1,2.9,1h0.2v2.2h-0.7c-1.6,0-2.9-0.1-4-0.2
			c-1-0.1-1.9-0.3-2.6-0.7c-0.7-0.3-1.3-0.8-1.9-1.4c-0.5-0.6-1.1-1.4-1.6-2.4l-7-11.6h-4.3v10.6c0,0.8,0.1,1.4,0.3,1.8
			s0.5,0.8,0.9,1c0.4,0.2,0.8,0.4,1.3,0.5c0.5,0.1,1.1,0.1,1.6,0.1h0.7v2.2h-15v-2.2h0.7c0.6,0,1.1,0,1.6-0.1c0.5-0.1,1-0.2,1.3-0.5
			c0.4-0.2,0.7-0.6,0.9-1s0.3-1.1,0.3-1.8v-25.5c0-0.8-0.1-1.4-0.3-1.8s-0.5-0.8-0.9-1.1c-0.4-0.3-0.8-0.4-1.3-0.5
			c-0.5-0.1-1.1-0.1-1.6-0.1h-0.7v-2.2h13.9c4.5,0,7.8,0.8,10,2.5c2.2,1.7,3.3,4.1,3.3,7.5c0,1.4-0.2,2.6-0.7,3.6
			c-0.4,1-1,1.9-1.7,2.7c-0.7,0.8-1.5,1.4-2.4,1.9s-1.8,0.9-2.7,1.2L230.1,224.6z M213.6,212.2h3.6c1.5,0,2.8-0.2,3.8-0.5
			c1-0.3,1.8-0.8,2.4-1.5c0.6-0.7,1-1.5,1.3-2.5c0.3-1,0.4-2.2,0.4-3.5c0-1.4-0.1-2.5-0.4-3.5c-0.3-1-0.7-1.8-1.4-2.4
			c-0.6-0.6-1.5-1.1-2.5-1.3s-2.3-0.4-3.7-0.4h-3.5V212.2z"/>
		<path id="XMLID_12_" class="st3" d="M287.7,212.4c0,2.8-0.4,5.4-1.1,7.8s-1.7,4.3-3.1,6c-1.4,1.7-3.1,2.9-5.1,3.9
			s-4.3,1.4-6.9,1.4c-2.7,0-5.1-0.5-7.1-1.4c-2-0.9-3.7-2.2-5.1-3.9c-1.3-1.7-2.3-3.7-3-6c-0.7-2.3-1-4.9-1-7.8c0-2.9,0.3-5.4,1-7.8
			c0.7-2.3,1.7-4.3,3-6c1.3-1.6,3-2.9,5.1-3.8c2-0.9,4.4-1.3,7.2-1.3c2.6,0,4.9,0.4,6.9,1.3c2,0.9,3.7,2.2,5.1,3.8
			c1.4,1.7,2.4,3.6,3.1,6S287.7,209.6,287.7,212.4z M261,212.4c0,2.6,0.2,4.8,0.6,6.8c0.4,2,1,3.7,1.8,5.1c0.8,1.4,1.9,2.4,3.3,3.2
			s3,1.1,4.9,1.1c1.9,0,3.5-0.4,4.9-1.1s2.4-1.8,3.2-3.2c0.8-1.4,1.4-3.1,1.8-5.1c0.4-2,0.6-4.3,0.6-6.8s-0.2-4.8-0.6-6.8
			s-1-3.7-1.8-5.1c-0.8-1.4-1.9-2.4-3.2-3.1c-1.3-0.7-2.9-1.1-4.8-1.1c-1.9,0-3.5,0.4-4.9,1.1c-1.3,0.7-2.4,1.8-3.3,3.1
			c-0.8,1.4-1.5,3.1-1.8,5.1C261.1,207.6,261,209.9,261,212.4z"/>
		<path id="XMLID_15_" class="st3" d="M310.6,230.9v-2.2h0.7c0.6,0,1.1,0,1.6-0.1s1-0.3,1.3-0.5c0.4-0.3,0.7-0.6,0.9-1.1
			c0.2-0.5,0.3-1.1,0.3-1.9V200c0-0.8-0.1-1.5-0.3-1.9c-0.2-0.5-0.5-0.9-0.9-1.1c-0.4-0.3-0.8-0.4-1.3-0.5c-0.5-0.1-1.1-0.1-1.6-0.1
			h-0.7v-2.2h15v2.2h-0.7c-0.6,0-1.1,0-1.6,0.1c-0.5,0.1-1,0.2-1.3,0.5c-0.4,0.3-0.7,0.6-0.9,1.1c-0.2,0.5-0.3,1.1-0.3,1.8v28.6
			h10.2c0.8,0,1.4-0.1,2-0.4s1-0.6,1.3-1.1c0.4-0.4,0.6-0.9,0.8-1.5c0.2-0.6,0.3-1.1,0.4-1.7l0.5-3.9h2.7l-0.4,11.1H310.6z"/>
		<path id="XMLID_17_" class="st3" d="M360.8,230.9v-2.2h0.7c0.6,0,1.1,0,1.6-0.1s1-0.3,1.3-0.5c0.4-0.3,0.7-0.6,0.9-1.1
			c0.2-0.5,0.3-1.1,0.3-1.9V200c0-0.8-0.1-1.5-0.3-1.9c-0.2-0.5-0.5-0.9-0.9-1.1c-0.4-0.3-0.8-0.4-1.3-0.5c-0.5-0.1-1.1-0.1-1.6-0.1
			h-0.7v-2.2h15v2.2h-0.7c-0.6,0-1.1,0-1.6,0.1c-0.5,0.1-1,0.2-1.3,0.5c-0.4,0.3-0.7,0.6-0.9,1.1c-0.2,0.5-0.3,1.1-0.3,1.8v28.6H381
			c0.8,0,1.4-0.1,2-0.4s1-0.6,1.3-1.1c0.4-0.4,0.6-0.9,0.8-1.5c0.2-0.6,0.3-1.1,0.4-1.7l0.5-3.9h2.7l-0.4,11.1H360.8z"/>
	</g>
	<polyline id="XMLID_6_" class="st4" points="128.1,277.1 248.7,351.6 368.5,277.1 	"/>
</g>
<g id="_x31_946">
	<circle id="XMLID_34_" class="st5" cx="248.5" cy="248.5" r="223.5"/>
	<g id="XMLID_27_">
		<path id="XMLID_31_" class="st3" d="M341.9,129H239c-18.9,0-34.3,15.4-34.3,34.3v114.3H159c-43.2,0-56.4,63.6-56.9,66.3
			c-0.7,3.4,0.2,6.8,2.4,9.5c2.2,2.7,5.4,4.2,8.8,4.2h91.4c6.3,0,11.4-5.1,11.4-11.4h80c18.9,0,34.3-15.4,34.3-34.3V209h34.3
			c6.3,0,11.4-5.1,11.4-11.4v-34.3C376.2,144.3,360.8,129,341.9,129z M194.1,334.7h-65.7c5.4-15.1,15.7-34.3,30.6-34.3h47.6
			C199.4,311.1,195.6,323.7,194.1,334.7z M250.4,300.4c5.1,0,11.4,6.3,11.4,11.4c0,4,0.9,7.8,2.3,11.4h-43.8
			C224.6,311.9,233.1,300.4,250.4,300.4z M307.6,311.9c0,6.3-5.1,11.4-11.4,11.4c-6.3,0-11.4-6.3-11.4-11.4
			c0-17.6-16.7-34.3-34.3-34.3h-22.9V163.3c0-6.3,5.1-11.4,11.4-11.4h70.7c-1.3,3.6-2.1,7.4-2.1,11.4V311.9z M353.3,186.1h-22.9
			v-22.9c0-6.3,5.1-11.4,11.4-11.4s11.4,5.1,11.4,11.4V186.1z"/>
		<rect id="XMLID_20_" x="239" y="174.7" class="st3" width="57.2" height="22.9"/>
		<rect id="XMLID_19_" x="239" y="209" class="st3" width="57.2" height="22.9"/>
		<rect id="XMLID_2_" x="239" y="243.3" class="st3" width="57.2" height="22.9"/>
	</g>
</g>
<g id="_x31_954" class="st0">
	<circle id="XMLID_39_" class="st1" cx="248.5" cy="248.5" r="223.5"/>
	<g id="XMLID_47_" class="st2">
		<path id="XMLID_45_" class="st3" d="M161.2,162.5c5.5-4.7,24.4-11.5,44.9-11.5s39.4,6.8,44.9,11.5h23.9
			c0-25.7-47.3-34.4-68.8-34.4s-68.8,8.7-68.8,34.4v137.7c0,25.8,47.3,34.4,68.8,34.4c3.3,0,7.2-0.2,11.5-0.7v-23
			c-3.7,0.4-7.5,0.8-11.5,0.8c-22,0-42.2-7.9-45.9-12.5v-7.9c15.1,6.4,34.2,8.9,45.9,8.9c3.3,0,7.2-0.2,11.5-0.7v-23
			c-3.7,0.4-7.5,0.8-11.5,0.8c-22.2,0-42.6-8-45.9-12.6v-7.8c15.1,6.4,34.2,8.9,45.9,8.9c3.3,0,7.2-0.2,11.5-0.7v-23
			c-3.7,0.4-7.5,0.8-11.5,0.8c-22.2,0-42.6-8-45.9-12.6v-7.8c15.1,6.4,34.2,8.9,45.9,8.9c3.3,0,7.2-0.2,11.5-0.7v-23
			c-3.7,0.4-7.5,0.8-11.5,0.8c-22.2,0-42.6-8-45.9-12.6V188c15.1,6.4,34.2,8.9,45.9,8.9c3.3,0,7.2-0.2,11.5-0.7v-23
			c-3.7,0.4-7.6,0.7-11.5,0.7C185.6,174,166.7,167.2,161.2,162.5z"/>
		<path id="XMLID_48_" class="st3" d="M297.9,185.5c-21.6,0-68.8,8.7-68.8,34.4v103.2c0,25.8,47.3,34.4,68.8,34.4
			s68.8-8.7,68.8-34.4V219.9C366.7,194.1,319.4,185.5,297.9,185.5z M343.8,253.2c-3.3,4.6-23.7,12.6-45.9,12.6
			c-22.2,0-42.6-8-45.9-12.6v-7.8c15.1,6.4,34.2,8.9,45.9,8.9s30.7-2.6,45.9-8.9V253.2z M343.8,287.6c-3.3,4.6-23.7,12.6-45.9,12.6
			c-22.2,0-42.6-8-45.9-12.6v-7.8c15.1,6.4,34.2,8.9,45.9,8.9s30.7-2.6,45.9-8.9V287.6z M297.9,208.4c20.5,0,39.4,6.8,44.9,11.5
			c-5.5,4.7-24.4,11.5-44.9,11.5c-20.5,0-39.4-6.8-44.9-11.5C258.4,215.2,277.4,208.4,297.9,208.4z M297.9,334.6
			c-22,0-42.2-7.9-45.9-12.5v-7.9c15.1,6.4,34.2,8.9,45.9,8.9s30.7-2.6,45.9-8.9v7.9C340.1,326.7,319.9,334.6,297.9,334.6z"/>
	</g>
</g>
<g id="_x31_968" class="st0">
	<circle id="XMLID_37_" class="st1" cx="248.5" cy="248.5" r="223.5"/>
	<rect id="XMLID_55_" x="141.6" y="143.3" class="st6" width="221.3" height="221.3"/>
	<g id="XMLID_26_" class="st2">
		<g id="XMLID_58_">
			<path id="XMLID_63_" class="st3" d="M366.9,291.7c-0.8-0.2-1.7-0.1-2.5-0.1v-134c0-5.7-4.6-10.3-10.3-10.3H148.3
				c-5.7,0-10.3,4.6-10.3,10.3v133.8c0,0-1.7,0.1-2.5,0.3c-5.5,1.4-8.9,7-7.5,12.5l7.8,31.2c2.5,10.1,12.3,17.8,22.8,17.8h185.3
				c10.4,0,20.2-7.6,22.8-17.8l7.8-31.2C375.8,298.7,372.4,293.1,366.9,291.7z M158.6,167.9h185.3v123.5h-72
				c-5.7,0-10.3,4.6-10.3,10.3h-20.6c0-5.7-4.6-10.3-10.3-10.3h-72V167.9z M346.7,330.4c-0.2,0.9-1.9,2.2-2.8,2.2H158.6
				c-0.9,0-2.6-1.3-2.8-2.2l-4.6-18.4h69.2c0,5.7,4.6,10.3,10.3,10.3h41.2c5.7,0,10.3-4.6,10.3-10.3h69.2L346.7,330.4z"/>
			<path id="XMLID_51_" class="st3" d="M240.9,270.8h-20.6v-82.3h20.6l61.8-10.3H179.2c-5.7,0-10.3,4.6-10.3,10.3v82.3
				c0,5.7,4.6,10.3,10.3,10.3h61.8V270.8z"/>
			<path id="XMLID_50_" class="st3" d="M256.4,239.9h-15.4v10.3h15.4c2.8,0,5.1-2.3,5.1-5.1C261.5,242.3,259.2,239.9,256.4,239.9z"
				/>
			<path id="XMLID_49_" class="st3" d="M282.1,214.2c0,5.8-2,11.1-5.3,15.4c3.3,4.3,5.3,9.6,5.3,15.4c0,12.4-8.9,22.8-20.6,25.2
				l-61.8,10.8h123.5c5.7,0,10.3-4.6,10.3-10.3v-82.3c0-5.7-4.6-10.3-10.3-10.3h-61.8V189C273.2,191.4,282.1,201.8,282.1,214.2z"/>
			<path id="XMLID_46_" class="st3" d="M240.9,219.4h15.4c2.8,0,5.1-2.3,5.1-5.1c0-2.8-2.3-5.1-5.1-5.1h-15.4V219.4z"/>
		</g>
		<rect id="XMLID_38_" x="189.5" y="178.2" class="st3" width="123.5" height="102.9"/>
	</g>
</g>
<g id="_x31_980" class="st0">
	<circle id="XMLID_62_" class="st1" cx="248.5" cy="248.5" r="223.5"/>
	<rect id="XMLID_61_" x="141.6" y="143.3" class="st6" width="221.3" height="221.3"/>
	<g id="XMLID_64_" class="st2">
		<rect id="XMLID_59_" x="216.8" y="191.9" class="st3" width="21.2" height="21.2"/>
		<rect id="XMLID_57_" x="259.1" y="191.9" class="st3" width="21.2" height="21.2"/>
		<rect id="XMLID_56_" x="216.8" y="234.2" class="st3" width="21.2" height="21.2"/>
		<rect id="XMLID_36_" x="259.1" y="234.2" class="st3" width="21.2" height="21.2"/>
		<rect id="XMLID_35_" x="174.4" y="276.5" class="st3" width="21.2" height="21.2"/>
		<rect id="XMLID_33_" x="216.8" y="276.5" class="st3" width="21.2" height="21.2"/>
		<rect id="XMLID_32_" x="259.1" y="276.5" class="st3" width="21.2" height="21.2"/>
		<rect id="XMLID_30_" x="301.4" y="276.5" class="st3" width="21.2" height="21.2"/>
		<path id="XMLID_65_" class="st3" d="M343.7,244.8H312v-84.6c0-5.8-4.7-10.6-10.6-10.6h-21.2V139c0-5.8-4.7-10.6-10.6-10.6h-42.3
			c-5.8,0-10.6,4.7-10.6,10.6v10.6h-21.2c-5.8,0-10.6,4.7-10.6,10.6v84.6h-31.7c-5.8,0-10.6,4.7-10.6,10.6V340
			c0,5.8,4.7,10.6,10.6,10.6h190.4c5.8,0,10.6-4.7,10.6-10.6v-84.6C354.3,249.5,349.6,244.8,343.7,244.8z M333.1,329.4h-63.5v-21.2
			h-42.3v21.2h-63.5V266h31.7c5.8,0,10.6-4.7,10.6-10.6v-84.6h21.2c5.8,0,10.6-4.7,10.6-10.6v-10.6h21.2v10.6
			c0,5.8,4.7,10.6,10.6,10.6h21.2v84.6c0,5.8,4.7,10.6,10.6,10.6h31.7V329.4z"/>
	</g>
</g>
<g id="_x31_984" class="st0">
	<circle id="XMLID_78_" class="st1" cx="248.5" cy="248.5" r="223.5"/>
	<rect id="XMLID_77_" x="141.6" y="143.3" class="st6" width="221.3" height="221.3"/>
	<g id="XMLID_71_" class="st2">
		<path id="XMLID_69_" class="st3" d="M190.9,228.2H221l-21.3-21.3l70.1-70.1l38.2,38.2l-53.2,53.2h30.1l45.7-45.7
			c4.2-4.2,4.2-10.9,0-15l-53.2-53.2c-4.2-4.2-10.9-4.2-15,0l-85.1,85.1c-4.2,4.2-4.2,10.9,0,15L190.9,228.2z"/>
		<path id="XMLID_74_" class="st3" d="M333.7,238.8H163.4c-5.9,0-10.6,4.8-10.6,10.6v106.4c0,5.9,4.8,10.6,10.6,10.6h170.3
			c5.9,0,10.6-4.8,10.6-10.6V249.4C344.3,243.6,339.5,238.8,333.7,238.8z M323,345.2H174v-85.1h149V345.2z"/>
		<polygon id="XMLID_66_" class="st3" points="237.9,334.6 259.2,334.6 259.2,313.3 280.5,313.3 280.5,292 259.2,292 259.2,270.7 
			237.9,270.7 237.9,292 216.6,292 216.6,313.3 237.9,313.3 		"/>
		<path id="XMLID_60_" class="st3" d="M253.8,174.9c-8.8,0-16,7.1-16,16c0,8.8,7.1,16,16,16c8.8,0,16-7.1,16-16
			C269.8,182.1,262.7,174.9,253.8,174.9z"/>
	</g>
</g>
<g id="_x32_009" class="st0">
	<circle id="XMLID_82_" class="st1" cx="248.5" cy="248.5" r="223.5"/>
	<rect id="XMLID_81_" x="141.6" y="143.3" class="st6" width="221.3" height="221.3"/>
	<g id="XMLID_80_" class="st2">
		<path id="XMLID_84_" class="st3" d="M337.4,146.3h-21.5c0-5.9-4.8-10.7-10.7-10.7h-23.3c-4.4-12.5-16.4-21.5-30.3-21.5
			s-25.9,9-30.3,21.5h-23.3c-5.9,0-10.7,4.8-10.7,10.7h-21.5c-11.8,0-21.5,9.6-21.5,21.5v182.4c0,11.8,9.6,21.5,21.5,21.5h171.6
			c11.8,0,21.5-9.6,21.5-21.5V167.7C358.8,155.9,349.2,146.3,337.4,146.3z M197.9,199.9h107.3v118H197.9V199.9z M208.7,157h21.5
			c5.9,0,10.7-4.8,10.7-10.7s4.8-10.7,10.7-10.7c5.9,0,10.7,4.8,10.7,10.7S267.1,157,273,157h21.5v21.5h-85.8V157z M337.4,350.1
			H165.8V167.7h21.5v10.7c-5.9,0-10.7,4.8-10.7,10.7v139.5c0,5.9,4.8,10.7,10.7,10.7h128.7c5.9,0,10.7-4.8,10.7-10.7V189.2
			c0-5.9-4.8-10.7-10.7-10.7v-10.7h21.5V350.1z"/>
		<polygon id="XMLID_70_" class="st3" points="262.3,232.1 240.8,232.1 240.8,253.5 219.4,253.5 219.4,275 240.8,275 240.8,296.5 
			262.3,296.5 262.3,275 283.8,275 283.8,253.5 262.3,253.5 		"/>
	</g>
</g>
<g id="_x32_010" class="st0">
	<circle id="XMLID_91_" class="st1" cx="248.5" cy="248.5" r="223.5"/>
	<rect id="XMLID_90_" x="141.6" y="143.3" class="st6" width="221.3" height="221.3"/>
	<path id="XMLID_92_" class="st7" d="M359.4,328.4l-11.2-33.5c-1.5-4.5-5.8-7.6-10.6-7.6h-11.2v-78.1h11.2c6.2,0,11.2-5,11.2-11.2
		v-22.3c0-4.6-2.9-8.8-7.2-10.4l-89.2-33.5c-2.5-0.9-5.3-0.9-7.8,0l-89.2,33.5c-4.4,1.6-7.2,5.8-7.2,10.4v22.3
		c0,6.2,5,11.2,11.2,11.2h11.2v78.1h-11.2c-4.8,0-9.1,3.1-10.6,7.6l-11.2,33.5c-1.1,3.4-0.6,7.1,1.5,10.1c2.1,2.9,5.5,4.6,9,4.6
		h200.8c3.6,0,6.9-1.7,9-4.6C360,335.5,360.6,331.8,359.4,328.4z M304.2,287.3h-22.3v-78.1h22.3V287.3z M259.6,209.2v78.1h-22.3
		v-78.1H259.6z M170.4,183.5l78.1-29.3l78.1,29.3v3.4H170.4V183.5z M192.7,209.2H215v78.1h-22.3V209.2z M163.5,320.8l3.7-11.2h162.4
		l3.7,11.2H163.5z"/>
</g>
<g id="_x32_014" class="st0">
	<circle id="XMLID_100_" class="st1" cx="248.5" cy="248.5" r="223.5"/>
	<rect id="XMLID_99_" x="145.6" y="143.3" class="st6" width="221.3" height="221.3"/>
	<path id="XMLID_430_" class="st7" d="M383.4,361.8c-0.9,1.9-2.2,3.4-4.5,3.6c-2.9,0.2-5-2-5-5.4c0-8.8,0-17.7,0-26.7
		c-82.9,0-165.7,0-248.8,0c0,1,0,1.9,0,2.9c0,7.9,0,15.7,0,23.6c0,3.5-1.9,5.7-4.8,5.6c-2.8-0.1-4.6-2.2-4.6-5.6
		c0-46.4,0-92.7,0-139.1c0-3.4,1.8-5.4,4.7-5.5c3,0,4.7,2.1,4.7,5.7c0,21.8,0,43.6,0,65.3c0,1,0,2.1,0,3.5c1,0,1.8,0,2.6,0
		c19.3,0,38.7,0,58,0c1.9,0,2.6-0.4,3-2.5c3.2-17.5,18.7-30.5,36.6-30.6c40.2-0.1,80.5-0.1,120.7,0c18.5,0,34.1,13.8,36.9,32.1
		c0.1,0.5,0.3,1,0.5,1.4C383.4,314.2,383.4,338,383.4,361.8z M254.3,323.4c40,0,79.7,0,119.6,0c0-9.5,0-18.7,0-28
		c0-16.8-12.3-29.1-29.2-29.1c-29.2,0-58.4,0-87.6,0c-0.9,0-1.8,0-2.8,0C254.3,285.5,254.3,304.4,254.3,323.4z M244.7,299.5
		c-40,0-79.7,0-119.4,0c0,8.1,0,16,0,24c39.9,0,79.6,0,119.4,0C244.7,315.4,244.7,307.5,244.7,299.5z M244.6,289.8
		c0-7.9,0-15.6,0-23.5c-6.6,0-12.9-0.1-19.3,0c-12.6,0.1-23.7,8.8-26.9,21.1c-0.2,0.7-0.3,1.5-0.5,2.4
		C213.6,289.8,229,289.8,244.6,289.8z"/>
	<path id="XMLID_421_" class="st7" d="M135.5,260.7c0-13.7,11.2-24.9,24.9-24.8c13.7,0,24.9,11.3,24.8,24.9
		c0,13.7-11.2,24.9-24.9,24.8C146.6,285.6,135.5,274.5,135.5,260.7z M145,260.8c0,8.5,6.8,15.4,15.2,15.4
		c8.5,0.1,15.5-6.9,15.5-15.4c0-8.4-6.9-15.4-15.3-15.4C152,245.2,145,252.2,145,260.8z"/>
	<g id="XMLID_89_" class="st2">
		<path id="XMLID_427_" class="st3" d="M260,103.2c3.2,0.7,6.5,1.2,9.7,2.1c20.3,5.7,35.2,23.7,36.9,44.6
			c1.8,21.2-9.4,41.1-28.3,50.4c-1.4,0.7-2.8,2.1-3.6,3.5c-4.9,9.1-9.6,18.2-14.4,27.4c-1,2-2.3,3.6-4.7,3.7
			c-2.5,0.1-3.8-1.6-4.9-3.7c-4.7-9.2-9.5-18.3-14.4-27.4c-0.8-1.4-2.1-2.8-3.5-3.5c-19.9-9.9-31.6-32.3-27.8-53.5
			c4.1-23.3,21.7-40.5,44.2-43.1c0.6-0.1,1.2-0.3,1.7-0.5C254.1,103.2,257,103.2,260,103.2z M255.6,219.8c0.6-1.1,1.1-1.8,1.5-2.6
			c3.4-6.6,7-13.1,10.3-19.8c1.2-2.5,3-4,5.5-5.2c19.2-8.5,28.9-30.2,22.6-50.3c-6.3-20.1-26.7-32.5-47.2-28.7
			c-17.9,3.3-32,18-34,35.4c-2.2,19.3,7.4,36.3,24.8,44.1c1.7,0.8,3.4,2.4,4.4,4.1C247.7,204.3,251.5,211.8,255.6,219.8z"/>
		<path id="XMLID_351_" class="st3" d="M269.5,167.8c0,4.3,0,8.3,0,12.3c0,4.2-1.7,5.9-5.9,5.9c-5.2,0-10.5,0-15.8,0
			c-4.2,0-5.8-1.7-5.9-5.9c0-4,0-8,0-12.3c-4.3,0-8.3,0-12.3,0c-4.1,0-5.8-1.6-5.8-5.7c0-5.4,0-10.9,0-16.3c0-3.8,1.7-5.4,5.5-5.5
			c4.1,0,8.2,0,12.7,0c0-4,0-7.9,0-11.7c0-5.1,1.5-6.5,6.6-6.5c3.2,0,6.3,0.1,9.4,0c11.7-0.2,11.7,0.2,11.5,11.6c0,2.1,0,4.2,0,6.6
			c4.2,0,8.2,0,12.2,0c4.3,0,5.9,1.5,5.9,5.8c0,5.3,0,10.7,0,16c0,4-1.7,5.6-5.6,5.6C278,167.8,273.9,167.8,269.5,167.8z M278,149.8
			c-4.2,0-8.2,0-12.1,0c-4.2,0-5.9-1.7-5.9-5.9c0-4,0-8,0-12.2c-2.9,0-5.6,0-8.2,0c-0.1,0.4-0.3,0.6-0.3,0.8c0,3.7,0,7.3-0.1,11
			c0,4.6-1.6,6.2-6.2,6.2c-3.9,0-7.8,0-11.8,0c0,3,0,5.6,0,8.6c2.7,0,5.2,0,7.7,0c10.2,0,10.3,0.1,10.3,10.2c0,2.6,0,5.2,0,7.9
			c3.1,0,5.7,0,8.3,0c0.1-0.3,0.2-0.5,0.2-0.6c0-3.7,0-7.3,0.1-11c0-4.9,1.5-6.4,6.5-6.4c3.8,0,7.6,0,11.5,0
			C278,155.4,278,152.8,278,149.8z"/>
	</g>
</g>
</svg>
