<?xml version="1.0" encoding="utf-8"?>
<!-- Generator: Adobe Illustrator 19.0.0, SVG Export Plug-In . SVG Version: 6.00 Build 0)  -->
<svg version="1.1" id="Layer_1" xmlns="http://www.w3.org/2000/svg" xmlns:xlink="http://www.w3.org/1999/xlink" x="0px" y="0px"
	 viewBox="0 0 500 500" style="enable-background:new 0 0 500 500;" xml:space="preserve">
<style type="text/css">
	.st0{fill:#843875;}
	.st1{fill:#FFFFFF;stroke:#FFFFFF;stroke-width:7;stroke-linecap:round;stroke-linejoin:round;stroke-miterlimit:10;}
	.st2{fill:#FFFFFF;stroke:#FFFFFF;stroke-width:8;stroke-linecap:round;stroke-linejoin:round;stroke-miterlimit:10;}
	.st3{fill:#FFFFFF;stroke:#FFFFFF;stroke-width:5;stroke-linecap:round;stroke-linejoin:round;stroke-miterlimit:10;}
	.st4{fill:#FFFFFF;stroke:#FFFFFF;stroke-miterlimit:10;}
</style>
<circle id="XMLID_1_" class="st0" cx="248.5" cy="248.5" r="223.5"/>
<path id="XMLID_6_" class="st1" d="M132.4,303.7c0,8.4,0,16.6,0,24.7c0,0.9,0,1.7,0,2.6c-0.2,2.4-2.1,4.2-4.4,4.3
	c-2.3,0.1-4.4-1.6-4.7-3.9c-0.1-0.8-0.1-1.7-0.1-2.6c0-44.9,0-89.9,0-134.8c0-0.4,0-0.9,0-1.3c0.1-3.1,1.9-5.1,4.6-5.1
	c2.7,0,4.6,2,4.6,5.1c0,5.7,0,11.4,0,17c0,16,0,32,0,48c0,0.9,0,1.9,0,3.2c1,0,1.8,0,2.6,0c19,0,38,0,57.1,0c1.9,0,2.6-0.5,2.9-2.5
	c3.2-17.2,18.4-30,36-30.1c39.6-0.1,79.2-0.1,118.8,0c19.9,0.1,36.5,16.4,36.6,36.3c0.2,21.7,0.1,43.4,0,65.1c0,3-1.3,4.9-3.8,5.4
	c-2.2,0.4-4-0.5-4.9-2.4c-0.5-0.9-0.5-2.2-0.5-3.2c0-8.5,0-17,0-25.8C295.6,303.7,214.1,303.7,132.4,303.7z M377.2,294
	c0-9.4,0-18.6,0-27.7c0-16.5-12.1-28.6-28.7-28.7c-28.7,0-57.5,0-86.2,0c-0.9,0-1.8,0-2.7,0c0,19,0,37.7,0,56.3
	C298.8,294,337.8,294,377.2,294z M132.5,294c39.3,0,78.4,0,117.5,0c0-8,0-15.8,0-23.6c-39.2,0-78.3,0-117.5,0
	C132.5,278.3,132.5,286,132.5,294z M250.1,237.7c-6.6,0-12.9-0.1-19.1,0c-8.4,0.1-15.3,3.5-20.8,9.8c-3.2,3.8-5.4,8.1-6.1,13.2
	c15.4,0,30.6,0,45.9,0c0-0.5,0.1-0.9,0.1-1.3C250.1,252.3,250.1,245.2,250.1,237.7z"/>
<path id="XMLID_3_" class="st2" d="M142.6,231.4c0-13.5,10.9-24.5,24.4-24.5c13.5,0,24.5,11,24.5,24.5c0,13.5-11,24.5-24.5,24.5
	C153.5,255.9,142.6,245,142.6,231.4z M151.9,231.4c0,8.4,6.8,15.3,15.2,15.2c8.3,0,15-6.8,15.1-15.1c0-8.4-6.8-15.3-15.2-15.3
	C158.7,216.3,151.9,223.1,151.9,231.4z"/>
<g id="XMLID_2_">
	<path id="XMLID_17_" class="st3" d="M255.1,104c2.4,0.5,4.8,0.9,7.2,1.5c15.1,4.2,26.1,17.6,27.4,33.1c1.3,15.7-7,30.4-20.9,37.4
		c-1.1,0.5-2.1,1.5-2.6,2.6c-3.6,6.7-7.1,13.5-10.6,20.3c-0.8,1.5-1.7,2.7-3.5,2.7c-1.9,0-2.9-1.2-3.7-2.7
		c-3.5-6.8-7-13.6-10.7-20.3c-0.6-1-1.6-2.1-2.6-2.6c-14.7-7.3-23.4-23.9-20.6-39.7c3-17.3,16.1-30,32.8-32c0.4-0.1,0.9-0.2,1.3-0.3
		C250.6,104,252.9,104,255.1,104z M251.8,190.5c0.5-0.8,0.8-1.4,1.1-1.9c2.5-4.8,5.1-9.6,7.5-14.5c0.9-1.9,2.2-3.1,4.2-4
		c14.2-6.3,21.4-22.4,16.7-37.3c-4.7-14.9-19.8-24.1-35-21.2c-13.3,2.5-23.7,13.4-25.2,26.3c-1.6,14.3,5.5,26.9,18.4,32.7
		c1.2,0.6,2.5,1.7,3.1,2.9C245.8,178.9,248.7,184.5,251.8,190.5z"/>
	<path id="XMLID_14_" class="st4" d="M257.6,134.1c1.9,0,3.6,0,5.3,0c1.5,0,2.2,0.7,2.2,2.2c0,2.3,0,4.7,0,7c0,1.6-0.7,2.2-2.3,2.2
		c-1.7,0-3.4,0-5.2,0c0,1.8,0,3.5,0,5.1c0,1.8-0.7,2.5-2.5,2.5c-2.2,0-4.5,0-6.7,0c-1.6,0-2.3-0.7-2.3-2.4c0-1.7,0-3.4,0-5.2
		c-1.8,0-3.4,0-5,0c-1.9,0-2.5-0.6-2.5-2.5c0-2.2,0-4.5,0-6.7c0-1.6,0.7-2.3,2.3-2.3c1.7,0,3.4,0,5.3,0c0-1.6,0-3.2,0-4.8
		c0-2.3,0.6-2.8,2.9-2.8c2.1,0,4.2,0,6.3,0c1.7,0,2.4,0.7,2.4,2.4C257.6,130.7,257.6,132.3,257.6,134.1z M253.7,130.6
		c-1.3,0-2.4,0-3.6,0c0,1.8,0,3.6,0,5.3c0,1.4-0.8,2.1-2.2,2.2c-0.5,0-1,0-1.5,0c-1.3,0-2.5,0-3.7,0c0,1.3,0,2.4,0,3.6
		c1.7,0,3.2,0,4.8,0c2,0,2.7,0.6,2.7,2.7c0,1.6,0,3.2,0,4.9c1.3,0,2.4,0,3.5,0c0.1-0.1,0.1-0.2,0.1-0.2c0-1.6,0-3.1,0-4.7
		c0-1.9,0.7-2.6,2.6-2.6c1.6,0,3.3,0,4.9,0c0-1.2,0-2.4,0-3.6c-1.7,0-3.4,0-5.1,0c-1.7,0-2.4-0.7-2.4-2.4
		C253.7,134,253.7,132.3,253.7,130.6z"/>
	<path id="XMLID_13_" class="st4" d="M256,134.8c0-0.5,0-6.6,0-6.6h-8.4v7.7h-7.1v7.3h8.2v8.4h7.3v-8.2h7.8v-7.3h-7.5"/>
</g>
</svg>
