<svg xmlns="http://www.w3.org/2000/svg" viewBox="0 0 512.9 502"><defs><style>.a,.b{fill:#ccc;stroke:#212121;stroke-linecap:round;stroke-linejoin:round;}.a{stroke-width:5px;}.b{stroke-width:2px;}</style></defs><title>lower_left</title><polygon class="a" points="510.4 301.4 2.5 2.5 2.5 200.6 510.4 499.5 510.4 301.4"/><polygon class="b" points="510.4 499.5 2.5 200.6 2.5 2.5 510.4 301.4 510.4 499.5"/><path class="b" d="M274.6,221.4l-28.2-16.3v31.4c2.3,2,11.8,10.4,16.4,16.7,3.4,4.7,8.7,8.1,11.9,9.8V221.4h-0.1Z"/><path class="b" d="M244.8,258.7h0l29.8,17.2v-1.8l-28.2-16.3C245.7,258.2,245.1,258.5,244.8,258.7Z"/><polygon class="b" points="242 260.3 242 202.6 236.6 199.5 236.6 263.4 236.6 263.5 242 260.3"/><polygon class="b" points="236.6 263.5 274.6 285.4 274.6 279.1 242 260.3 236.6 263.5"/><path class="b" d="M244.8,258.7V204.2l-2.8-1.6v57.7l32.6,18.8v-3.2l-29.8-17.2h0Z"/><path class="b" d="M246.4,236.5v21.3h0l28.3,16.3v-11a37.28,37.28,0,0,1-11.9-9.8C258.2,246.9,248.6,238.5,246.4,236.5Z"/><path class="b" d="M246.4,257.8V205.1l-1.5-.9v54.5a11.29,11.29,0,0,1,1.5-.9h0Z"/><path class="b" d="M208.8,183.4l-28.3-16.3v31.4c2.3,2,11.8,10.4,16.4,16.7,3.4,4.7,8.7,8.1,11.9,9.8V183.4Z"/><path class="b" d="M179,220.7h0l29.8,17.2v-1.8l-28.3-16.3Q179.45,220.4,179,220.7Z"/><polygon class="b" points="176.2 222.3 176.2 164.6 170.7 161.4 170.7 225.4 170.7 225.4 176.2 222.3"/><polygon class="b" points="170.7 225.4 208.8 247.4 208.8 241.1 176.2 222.3 170.7 225.4"/><path class="b" d="M179,220.7V166.2l-2.8-1.6v57.7l32.6,18.8v-3.2L179,220.7h0Z"/><path class="b" d="M180.5,198.5v21.3h0l28.3,16.3v-11a37.28,37.28,0,0,1-11.9-9.8C192.3,208.9,182.8,200.5,180.5,198.5Z"/><path class="b" d="M180.5,219.8V167.1l-1.5-.9v54.5q0.45-.3,1.5-0.9h0Z"/><path class="b" d="M143,145.4l-28.3-16.3v31.4c2.3,2,11.8,10.4,16.4,16.7,3.4,4.7,8.7,8.1,11.9,9.8V145.4h0Z"/><path class="b" d="M113.2,182.7h0L143,199.9v-1.8l-28.3-16.3A11.3,11.3,0,0,0,113.2,182.7Z"/><polygon class="b" points="110.4 184.3 110.4 126.6 104.9 123.4 104.9 187.4 104.9 187.4 110.4 184.3"/><polygon class="b" points="104.9 187.4 143 209.4 143 203.1 110.4 184.3 104.9 187.4"/><path class="b" d="M113.2,182.7V128.2l-2.8-1.6v57.7L143,203.1v-3.2l-29.8-17.2h0Z"/><path class="b" d="M114.7,160.5v21.3h0L143,198.1v-11a37.28,37.28,0,0,1-11.9-9.8C126.5,170.9,116.9,162.5,114.7,160.5Z"/><path class="b" d="M114.7,181.8V129.1l-1.5-.9v54.5a11.29,11.29,0,0,1,1.5-.9h0Z"/><path class="b" d="M78.2,107.9L49.9,91.6V123c2.3,2,11.8,10.4,16.4,16.7,3.4,4.7,8.7,8.1,11.9,9.8V107.9Z"/><path class="b" d="M48.4,145.2h0l29.8,17.2v-1.8L49.9,144.3A11.3,11.3,0,0,0,48.4,145.2Z"/><polygon class="b" points="45.6 146.8 45.6 89.1 40.1 85.9 40.1 149.9 40.1 149.9 45.6 146.8"/><polygon class="b" points="40.1 149.9 78.2 171.9 78.2 165.6 45.6 146.8 40.1 149.9"/><path class="b" d="M48.4,145.2V90.7l-2.8-1.6v57.7l32.6,18.8v-3.2L48.4,145.2h0Z"/><path class="b" d="M49.9,123v21.3h0l28.3,16.3v-11a37.28,37.28,0,0,1-11.9-9.8C61.7,133.4,52.1,125,49.9,123Z"/><path class="b" d="M49.9,144.3V91.6l-1.5-.9v54.5a11.29,11.29,0,0,1,1.5-.9h0Z"/></svg>