<svg xmlns="http://www.w3.org/2000/svg" viewBox="0 0 1383.8 825.7"><defs><style>.a{fill:#999;stroke-width:2px;}.a,.b{stroke:#212121;stroke-linecap:round;stroke-linejoin:round;}.b{fill:none;stroke-width:5px;}</style></defs><title>lower_roof</title><polygon class="a" points="1083 460.6 1094 454.2 1064.2 436.8 1053.1 443.3 1083 460.6"/><polygon class="a" points="1381.3 301.4 510.4 804.2 2.5 505.3 873.4 2.5 1381.3 301.4"/><polygon class="a" points="873.4 15.2 24.5 505.3 40.6 514.6 873.4 33.8 873.4 15.2"/><polygon class="a" points="873.4 33.8 1343.1 310.7 1359.3 301.4 873.4 15.2 873.4 33.8"/><polygon class="a" points="158.6 500.9 158.6 482.3 206.1 454.9 206.1 473.5 158.6 500.9"/><polygon class="a" points="158.6 482.3 111.2 454.9 158.6 427.6 206.1 454.9 158.6 482.3"/><polygon class="a" points="158.6 482.3 111.2 454.9 111.2 473.5 158.6 500.9 158.6 482.3"/><path class="a" d="M147.2,447.9l7.6,4.4a7.67,7.67,0,0,1,2.7-.7v-6.2A21.79,21.79,0,0,0,147.2,447.9Z"/><path class="a" d="M152.9,454.4a2.37,2.37,0,0,1,1-1.5h0l-7.6-4.4c-2.6,1.7-4,3.8-4.1,5.9h10.7Z"/><path class="a" d="M154,456.7h0a2.87,2.87,0,0,1-1.1-1.4H142.1c0.2,2.1,1.6,4.2,4.3,5.8Z"/><path class="a" d="M170.6,448.3l-7.6,4.4h0a2.54,2.54,0,0,1,1.1,1.7h10.7C174.7,452.2,173.3,450.1,170.6,448.3Z"/><path class="a" d="M157.5,464.1v-6.2h0a10.15,10.15,0,0,1-2.5-.6h0l-7.6,4.4A23.84,23.84,0,0,0,157.5,464.1Z"/><path class="a" d="M169.3,461.8l-7.6-4.4h0a7.64,7.64,0,0,1-2.7.5h0v6.2A23.26,23.26,0,0,0,169.3,461.8Z"/><path class="a" d="M161.4,456.4c1.6-.9,1.6-2.4,0-3.3a6.57,6.57,0,0,0-5.8,0c-1.6.9-1.6,2.4,0,3.3A6.57,6.57,0,0,0,161.4,456.4Z"/><path class="a" d="M159,445.3v6.2h0a8.82,8.82,0,0,1,2.9.7h0l7.6-4.4A22.6,22.6,0,0,0,159,445.3Z"/><path class="a" d="M145.2,461.8c-3-1.8-4.5-4.2-4.8-6.5h-9c0.2,3.7,2.7,7.3,7.4,10.2Z"/><path class="a" d="M140.4,454.4c0.1-2.4,1.6-4.7,4.6-6.6l-6.3-3.7c-4.7,2.9-7.1,6.6-7.2,10.3h8.9Z"/><path class="a" d="M170.5,462.5a25.59,25.59,0,0,1-11.5,2.6v5.2c6.4-.1,12.8-1.4,17.8-4.1Z"/><path class="a" d="M157.5,465.1a25.79,25.79,0,0,1-11.3-2.7l-6.3,3.7a40.11,40.11,0,0,0,17.6,4.3v-5.3Z"/><path class="a" d="M174.8,455.3H164a3.2,3.2,0,0,1-1.3,1.6l7.6,4.4C173.1,459.5,174.6,457.4,174.8,455.3Z"/><path class="a" d="M176.5,455.3c-0.2,2.4-1.9,4.8-5,6.6l6.3,3.7c4.8-2.9,7.4-6.6,7.6-10.3h-8.9Z"/><path class="a" d="M178.1,444l-6.3,3.7c3.1,1.9,4.6,4.3,4.8,6.8h9C185.3,450.7,182.9,446.9,178.1,444Z"/><path class="a" d="M146,447.2a26.41,26.41,0,0,1,11.5-2.9v-5.2a38.11,38.11,0,0,0-17.8,4.4Z"/><path class="a" d="M159,444.3a26.23,26.23,0,0,1,11.7,2.8l6.3-3.7a39.31,39.31,0,0,0-18.1-4.3v5.2H159Z"/><polygon class="a" points="226.7 461.5 226.7 442.9 274.1 415.5 274.1 434.1 226.7 461.5"/><polygon class="a" points="226.7 442.9 179.3 415.5 226.7 388.1 274.1 415.5 226.7 442.9"/><polygon class="a" points="226.7 442.9 179.3 415.5 179.3 434.1 226.7 461.5 226.7 442.9"/><path class="a" d="M215.3,408.4l7.6,4.4a7.67,7.67,0,0,1,2.7-.7v-6.2A22.71,22.71,0,0,0,215.3,408.4Z"/><path class="a" d="M220.9,415a2.37,2.37,0,0,1,1-1.5h0l-7.6-4.4c-2.6,1.7-3.9,3.8-4.1,5.9h10.7Z"/><path class="a" d="M222.1,417.3h0a2.87,2.87,0,0,1-1.1-1.4H210.2c0.2,2.1,1.6,4.2,4.3,5.8Z"/><path class="a" d="M238.6,408.9l-7.6,4.4h0a2.54,2.54,0,0,1,1.1,1.7h10.8C242.8,412.8,241.4,410.6,238.6,408.9Z"/><path class="a" d="M225.6,424.7v-6.2h0a10.15,10.15,0,0,1-2.5-.6h0l-7.6,4.4A23.49,23.49,0,0,0,225.6,424.7Z"/><path class="a" d="M237.3,422.4l-7.6-4.4h0a7.64,7.64,0,0,1-2.7.5h0v6.2A23,23,0,0,0,237.3,422.4Z"/><path class="a" d="M229.4,417c1.6-.9,1.6-2.4,0-3.3a6.57,6.57,0,0,0-5.8,0c-1.6.9-1.6,2.4,0,3.3A6.57,6.57,0,0,0,229.4,417Z"/><path class="a" d="M227,405.8V412h0a8.82,8.82,0,0,1,2.9.7h0l7.6-4.4A23.57,23.57,0,0,0,227,405.8Z"/><path class="a" d="M213.3,422.3c-3-1.8-4.5-4.2-4.8-6.5h-9c0.2,3.7,2.7,7.3,7.4,10.2Z"/><path class="a" d="M208.5,415c0.1-2.4,1.6-4.7,4.6-6.6l-6.3-3.7c-4.7,2.9-7.1,6.6-7.2,10.3h8.9Z"/><path class="a" d="M238.5,423.1a25.58,25.58,0,0,1-11.5,2.6v5.2c6.4-.1,12.8-1.4,17.8-4.1Z"/><path class="a" d="M225.6,425.7a25.79,25.79,0,0,1-11.3-2.7l-6.3,3.7a40.11,40.11,0,0,0,17.6,4.3v-5.3h0Z"/><path class="a" d="M242.9,415.8H232.1a3.2,3.2,0,0,1-1.3,1.6l7.6,4.4C241.2,420.1,242.7,418,242.9,415.8Z"/><path class="a" d="M244.6,415.8c-0.2,2.4-1.9,4.8-5,6.6l6.3,3.7c4.8-2.9,7.4-6.6,7.6-10.3h-8.9Z"/><path class="a" d="M246.1,404.6l-6.3,3.7c3.1,1.9,4.6,4.3,4.8,6.8h9C253.4,411.2,250.9,407.5,246.1,404.6Z"/><path class="a" d="M214.1,407.8a26.41,26.41,0,0,1,11.5-2.9v-5.2a38.11,38.11,0,0,0-17.8,4.4Z"/><path class="a" d="M227,404.9a26.23,26.23,0,0,1,11.7,2.8L245,404a39.31,39.31,0,0,0-18.1-4.3v5.2H227Z"/><polygon class="a" points="294.8 422 294.8 403.5 342.2 376.1 342.2 394.7 294.8 422"/><polygon class="a" points="294.8 403.5 247.4 376.1 294.8 348.7 342.2 376.1 294.8 403.5"/><polygon class="a" points="294.8 403.5 247.4 376.1 247.4 394.7 294.8 422 294.8 403.5"/><path class="a" d="M283.3,369l7.6,4.4a7.67,7.67,0,0,1,2.7-.7v-6.2A23,23,0,0,0,283.3,369Z"/><path class="a" d="M289,375.6a2.37,2.37,0,0,1,1-1.5h0l-7.6-4.4c-2.6,1.7-3.9,3.8-4.1,5.9H289Z"/><path class="a" d="M290.1,377.9h0a2.87,2.87,0,0,1-1.1-1.4H278.2c0.2,2.1,1.6,4.2,4.3,5.8Z"/><path class="a" d="M306.7,369.5l-7.6,4.4h0a2.54,2.54,0,0,1,1.1,1.7H311C310.8,373.4,309.4,371.2,306.7,369.5Z"/><path class="a" d="M293.6,385.3v-6.2h0a10.15,10.15,0,0,1-2.5-.6h0l-7.6,4.4A23.84,23.84,0,0,0,293.6,385.3Z"/><path class="a" d="M305.4,383l-7.6-4.4h0a10.71,10.71,0,0,1-2.7.6h0v6.2A24.4,24.4,0,0,0,305.4,383Z"/><path class="a" d="M297.5,377.5c1.6-.9,1.6-2.4,0-3.3a6.57,6.57,0,0,0-5.8,0c-1.6.9-1.6,2.4,0,3.3A6,6,0,0,0,297.5,377.5Z"/><path class="a" d="M295.1,366.4v6.2h0a8.82,8.82,0,0,1,2.9.7h0l7.6-4.4A23.57,23.57,0,0,0,295.1,366.4Z"/><path class="a" d="M281.3,382.9c-3-1.8-4.5-4.2-4.8-6.5h-9c0.2,3.7,2.7,7.3,7.4,10.2Z"/><path class="a" d="M276.6,375.6c0.1-2.4,1.6-4.7,4.6-6.6l-6.3-3.7c-4.7,2.9-7.1,6.6-7.2,10.3h8.9Z"/><path class="a" d="M306.6,383.7a25.58,25.58,0,0,1-11.5,2.6v5.2a40.91,40.91,0,0,0,17.8-4.1Z"/><path class="a" d="M293.6,386.3a25.79,25.79,0,0,1-11.3-2.7l-6.3,3.7a40.11,40.11,0,0,0,17.6,4.3v-5.3h0Z"/><path class="a" d="M310.9,376.4H300.1a3.2,3.2,0,0,1-1.3,1.6l7.6,4.4C309.2,380.7,310.7,378.6,310.9,376.4Z"/><path class="a" d="M312.6,376.4c-0.2,2.4-1.9,4.8-5,6.6l6.3,3.7c4.8-2.9,7.4-6.6,7.6-10.3h-8.9Z"/><path class="a" d="M314.2,365.2l-6.3,3.7c3.1,1.9,4.6,4.3,4.8,6.8h9C321.5,371.8,319,368.1,314.2,365.2Z"/><path class="a" d="M282.1,368.3a26.41,26.41,0,0,1,11.5-2.9v-5.2a38.11,38.11,0,0,0-17.8,4.4Z"/><path class="a" d="M295.1,365.5a26.23,26.23,0,0,1,11.7,2.8l6.3-3.7a39.31,39.31,0,0,0-18.1-4.3v5.2h0.1Z"/><polygon class="a" points="1381.3 303.3 1381.3 320.3 510.4 823.1 510.4 806.1 1381.3 303.3"/><polygon class="a" points="510.4 806.1 510.4 823.2 2.5 524.3 2.5 507.2 510.4 806.1"/><polygon class="a" points="1288.1 311.6 1301.9 303.6 1302 303.6 1302 316.5 1288.1 324.5 1288.1 311.6"/><path class="a" d="M1300.2,302.6c0.7,0.4,1.3.7,1.8,1l-13.9,8-26.9-15.5h0l11.6-6.7v6.5l14.9,8.6,7.9-4.6c1.4,0.8,3.1,1.8,4.6,2.7h0Z"/><path class="a" d="M1287.7,304.5V266.9h0l12.5-7.2V295h0v7.6c-1.5-.8-3.2-1.8-4.6-2.7Z"/><path class="a" d="M1291.7,192.6c-1.8,1.1-5.7,3.3-7.2,4.1h0l-2.2-1.3h0l2.9-1.7h0l3.2-1.9,1.1-.6Z"/><path class="a" d="M1288.4,252.8v4.5l-3.2,1.9h0V211.3l3.2-1.9v43.4Z"/><polygon class="a" points="1287.7 266.8 1287.7 304.5 1272.8 295.9 1272.8 289.3 1272.8 279.2 1272.8 274 1272.8 274 1272.8 267.3 1272.8 267.3 1272.8 258.3 1287.7 266.8"/><path class="a" d="M1288.4,257.3v-4.5l11.7,6.8h0l-12.5,7.2h0l-14.9-8.6h0l8.8-5.1v4l3.6,2.1h0Z"/><polygon class="a" points="1285.2 193.8 1285.2 168.6 1288.4 166.8 1288.4 192 1285.2 193.8"/><polygon class="a" points="1282.3 195.5 1282 195.3 1281.6 195.3 1281.6 166.6 1285.2 168.6 1285.2 193.8 1285.2 193.8 1282.3 195.5"/><polygon class="a" points="1281.6 166.6 1284.9 164.7 1288.4 166.8 1285.2 168.6 1281.6 166.6"/><polygon class="a" points="1281.6 253.1 1281.6 210.3 1282.1 210.3 1282.3 210.4 1284.5 211.7 1284.5 211.7 1284.5 211.7 1285.2 211.3 1285.2 259.2 1281.6 257.1 1281.6 253.1"/><path class="a" d="M1291.7,192.6v14.9l-3.3,1.9-3.2,1.9-0.7.4h0V196.8h0c1.5-.9,5.4-3.1,7.2-4.2h0Z"/><polygon class="a" points="1284.5 211.7 1282.3 210.4 1282.3 195.5 1284.5 196.8 1284.5 196.8 1284.5 211.7"/><polygon class="a" points="1281.6 210.3 1281.6 195.3 1282 195.3 1282.3 195.5 1282.3 195.5 1282.3 210.4 1282.1 210.3 1281.6 210.3"/><polygon class="a" points="1288.1 311.6 1288.1 324.5 1288.1 324.5 1261.2 309 1261.2 296.1 1288.1 311.6"/><polygon class="b" points="871.1 2.5 1381.3 301.4 1381.3 320.3 510.4 823.2 2.5 524.3 2.5 507.2 871.1 2.5"/></svg>