<svg xmlns="http://www.w3.org/2000/svg" viewBox="0 0 548.8 1097.66"><defs><style>.a{fill:#ccc;}.a,.b,.c{stroke:#212121;stroke-linecap:round;stroke-linejoin:round;}.a,.b{stroke-width:2px;}.b,.c{fill:none;}.c{stroke-width:5px;}</style></defs><title>upper_left</title><polygon class="a" points="226.2 1095.16 2.5 965.96 2.5 57.96 226.2 187.16 226.2 1095.16"/><path class="a" d="M198.1,439.76l-28.3-16.3v31.4c2.3,2,11.8,10.4,16.4,16.7,3.4,4.7,8.7,8.1,11.9,9.8v-41.6Z"/><path class="a" d="M168.3,477h0l29.8,17.2v-1.8l-28.3-16.3A5.23,5.23,0,0,1,168.3,477Z"/><polygon class="a" points="165.5 478.66 165.5 420.96 160.1 417.76 160.1 481.76 160.1 481.76 165.5 478.66"/><polygon class="a" points="160.1 481.76 198.1 503.76 198.1 497.46 165.5 478.66 160.1 481.76"/><path class="a" d="M168.3,477v-54.5l-2.8-1.6v57.8l32.6,18.8v-3.2L168.3,477h0Z"/><path class="a" d="M169.9,454.86v21.3h0l28.3,16.3v-11a37.28,37.28,0,0,1-11.9-9.8C181.7,465.26,172.1,456.86,169.9,454.86Z"/><path class="a" d="M169.9,476.16v-52.7l-1.5-.9v54.5a11.29,11.29,0,0,1,1.5-.9h0Z"/><path class="a" d="M132.3,401.76L104,385.46v31.4c2.3,2,11.8,10.4,16.4,16.7,3.4,4.7,8.7,8.1,11.9,9.8v-41.6h0Z"/><path class="a" d="M102.5,439h0l29.8,17.2v-1.8L104,438.06C103.3,438.46,102.8,438.86,102.5,439Z"/><polygon class="a" points="99.7 440.56 99.7 382.86 94.2 379.76 94.2 443.76 94.2 443.76 99.7 440.56"/><polygon class="a" points="94.2 443.76 132.3 465.66 132.3 459.46 99.7 440.56 94.2 443.76"/><path class="a" d="M102.5,439v-54.5l-2.8-1.6v57.7l32.6,18.8v-3.2L102.5,439h0Z"/><path class="a" d="M104,416.86v21.3h0l28.3,16.3v-11a37.28,37.28,0,0,1-11.9-9.8C115.8,427.26,106.3,418.76,104,416.86Z"/><path class="a" d="M104,438.06v-52.7l-1.5-.9V439c0.3-.1.8-0.5,1.5-0.9h0Z"/><path class="a" d="M66.4,363.66l-28.3-16.3v31.4c2.3,2,11.8,10.4,16.4,16.7,3.4,4.7,8.7,8.1,11.9,9.8v-41.6Z"/><path class="a" d="M36.7,401h0l29.8,17.2v-1.8l-28.3-16.3A11.29,11.29,0,0,0,36.7,401Z"/><polygon class="a" points="33.8 402.56 33.8 344.86 28.4 341.76 28.4 405.76 28.4 405.76 33.8 402.56"/><polygon class="a" points="28.4 405.76 66.4 427.66 66.4 421.36 33.8 402.56 28.4 405.76"/><path class="a" d="M36.7,401v-54.5l-2.8-1.6v57.7l32.6,18.8v-3.2L36.7,401h0Z"/><path class="a" d="M38.2,378.76v21.3h0l28.3,16.3v-11a37.28,37.28,0,0,1-11.9-9.8C50,389.26,40.4,380.76,38.2,378.76Z"/><path class="a" d="M38.2,400.06v-52.7l-1.5-.9V401a11.29,11.29,0,0,1,1.5-.9h0Z"/><path class="a" d="M198.1,542l-28.2-16.3v31.4c2.3,2,11.8,10.4,16.4,16.7,3.4,4.7,8.7,8.1,11.9,9.8V542h-0.1Z"/><path class="a" d="M168.3,579.26h0l29.8,17.2v-1.8l-28.3-16.3C169.2,578.76,168.6,579.06,168.3,579.26Z"/><polygon class="a" points="165.5 580.86 165.5 523.16 160.1 520.06 160.1 583.96 160.1 583.96 165.5 580.86"/><polygon class="a" points="160.1 583.96 198.1 605.96 198.1 599.66 165.5 580.86 160.1 583.96"/><path class="a" d="M168.3,579.26v-54.5l-2.8-1.6v57.7l32.6,18.8v-3.2l-29.8-17.2h0Z"/><path class="a" d="M169.9,557.06v21.3h0l28.3,16.3v-11a37.28,37.28,0,0,1-11.9-9.8C181.7,567.46,172.1,559.06,169.9,557.06Z"/><path class="a" d="M169.9,578.36v-52.7l-1.5-.9v54.5a11.3,11.3,0,0,1,1.5-.9h0Z"/><path class="a" d="M132.3,504L104,487.66v31.4c2.3,2,11.8,10.4,16.4,16.7,3.4,4.7,8.7,8.1,11.9,9.8V504h0Z"/><path class="a" d="M102.5,541.26h0l29.8,17.2v-1.8L104,540.36Q103,541,102.5,541.26Z"/><polygon class="a" points="99.7 542.86 99.7 485.16 94.2 481.96 94.2 545.96 94.2 545.96 99.7 542.86"/><polygon class="a" points="94.2 545.96 132.3 567.96 132.3 561.66 99.7 542.86 94.2 545.96"/><path class="a" d="M102.5,541.26v-54.5l-2.8-1.6v57.7l32.6,18.8v-3.2l-29.8-17.2h0Z"/><path class="a" d="M104,519.06v21.3h0l28.3,16.3v-11a37.28,37.28,0,0,1-11.9-9.8C115.8,529.46,106.3,521.06,104,519.06Z"/><path class="a" d="M104,540.36v-52.7l-1.5-.9v54.5q0.45-.3,1.5-0.9h0Z"/><path class="a" d="M66.4,466l-28.2-16.3v31.4c2.3,2,11.8,10.4,16.4,16.7,3.4,4.7,8.7,8.1,11.9,9.8V466H66.4Z"/><path class="a" d="M36.7,503.16h0l29.8,17.2v-1.7l-28.3-16.3C37.5,502.76,36.9,503.06,36.7,503.16Z"/><polygon class="a" points="33.8 504.86 33.8 447.16 28.4 443.96 28.4 507.96 28.4 507.96 33.8 504.86"/><polygon class="a" points="28.4 507.96 66.4 529.96 66.4 523.66 33.8 504.86 28.4 507.96"/><path class="a" d="M36.7,503.16v-54.5l-2.8-1.6v57.7l32.6,18.8v-3.2l-29.8-17.2h0Z"/><path class="a" d="M38.2,481.06v21.3h0l28.3,16.3v-11a37.28,37.28,0,0,1-11.9-9.8C50,491.46,40.4,483.06,38.2,481.06Z"/><path class="a" d="M38.2,502.36v-52.7l-1.5-.9v54.5a11.3,11.3,0,0,1,1.5-.9h0Z"/><path class="a" d="M198.1,644.26L169.8,628v31.4c2.3,2,11.8,10.4,16.4,16.7,3.4,4.7,8.7,8.1,11.9,9.8v-41.6Z"/><path class="a" d="M168.3,681.46h0l29.8,17.2v-1.8l-28.3-16.3A9.62,9.62,0,0,1,168.3,681.46Z"/><polygon class="a" points="165.5 683.06 165.5 625.36 160.1 622.26 160.1 686.26 160.1 686.26 165.5 683.06"/><polygon class="a" points="160.1 686.26 198.1 708.26 198.1 701.96 165.5 683.06 160.1 686.26"/><path class="a" d="M168.3,681.46V627l-2.8-1.6v57.7l32.6,18.8v-3.2l-29.8-17.2h0Z"/><path class="a" d="M169.9,659.36v21.3h0L198.2,697V686a37.28,37.28,0,0,1-11.9-9.8C181.7,669.76,172.1,661.26,169.9,659.36Z"/><path class="a" d="M169.9,680.56v-52.7l-1.5-.9v54.5c0.2-.1.8-0.5,1.5-0.9h0Z"/><path class="a" d="M132.3,606.26L104,590v31.4c2.3,2,11.8,10.4,16.4,16.7,3.4,4.7,8.7,8.1,11.9,9.8v-41.6h0Z"/><path class="a" d="M102.5,643.46h0l29.8,17.2v-1.8L104,642.56Q103,643.16,102.5,643.46Z"/><polygon class="a" points="99.7 645.06 99.7 587.36 94.2 584.26 94.2 648.26 94.2 648.26 99.7 645.06"/><polygon class="a" points="94.2 648.26 132.3 670.16 132.3 663.86 99.7 645.06 94.2 648.26"/><path class="a" d="M102.5,643.46V589l-2.8-1.6v57.7l32.6,18.8v-3.2l-29.8-17.2h0Z"/><path class="a" d="M104,621.36v21.3h0L132.3,659V648a37.28,37.28,0,0,1-11.9-9.8C115.8,631.76,106.3,623.26,104,621.36Z"/><path class="a" d="M104,642.56v-52.7l-1.5-.9v54.5q0.45-.3,1.5-0.9h0Z"/><path class="a" d="M66.4,568.16l-28.3-16.3v31.4c2.3,2,11.8,10.4,16.4,16.7,3.4,4.7,8.7,8.1,11.9,9.8v-41.6Z"/><path class="a" d="M36.7,605.46h0l29.8,17.2v-1.8l-28.3-16.3A11.29,11.29,0,0,0,36.7,605.46Z"/><polygon class="a" points="33.8 607.06 33.8 549.36 28.4 546.26 28.4 610.16 28.4 610.26 33.8 607.06"/><polygon class="a" points="28.4 610.26 66.4 632.16 66.4 625.86 33.8 607.06 28.4 610.26"/><path class="a" d="M36.7,605.46V551l-2.8-1.6v57.7l32.6,18.8v-3.2l-29.8-17.2h0Z"/><path class="a" d="M38.2,583.26v21.3h0l28.3,16.3v-11a37.28,37.28,0,0,1-11.9-9.8C50,593.66,40.4,585.26,38.2,583.26Z"/><path class="a" d="M38.2,604.56v-52.7l-1.5-.9v54.5a11.29,11.29,0,0,1,1.5-.9h0Z"/><path class="a" d="M198.1,746.46l-28.3-16.3v31.4c2.3,2,11.8,10.4,16.4,16.7,3.4,4.7,8.7,8.1,11.9,9.8v-41.6Z"/><path class="a" d="M168.3,783.76h0L198.1,801v-1.8l-28.3-16.3C169.2,783.26,168.6,783.56,168.3,783.76Z"/><polygon class="a" points="165.5 785.36 165.5 727.66 160.1 724.46 160.1 788.46 160.1 788.46 165.5 785.36"/><polygon class="a" points="160.1 788.46 198.1 810.46 198.1 804.16 165.5 785.36 160.1 788.46"/><path class="a" d="M168.3,783.76v-54.5l-2.8-1.6v57.7l32.6,18.8V801l-29.8-17.2h0Z"/><path class="a" d="M169.9,761.56v21.3h0l28.3,16.3v-11a37.28,37.28,0,0,1-11.9-9.8C181.7,772,172.1,763.56,169.9,761.56Z"/><path class="a" d="M169.9,782.86v-52.7l-1.5-.9v54.5a11.3,11.3,0,0,1,1.5-.9h0Z"/><path class="a" d="M132.3,708.46L104,692.16v31.4c2.3,2,11.8,10.4,16.4,16.7,3.4,4.7,8.7,8.1,11.9,9.8v-41.6h0Z"/><path class="a" d="M102.5,745.66h0l29.8,17.2v-1.8L104,744.76A7.05,7.05,0,0,1,102.5,745.66Z"/><polygon class="a" points="99.7 747.36 99.7 689.66 94.2 686.46 94.2 750.46 94.2 750.46 99.7 747.36"/><polygon class="a" points="94.2 750.46 132.3 772.46 132.3 766.16 99.7 747.36 94.2 750.46"/><path class="a" d="M102.5,745.66v-54.5l-2.8-1.6v57.7l32.6,18.8v-3.2l-29.8-17.2h0Z"/><path class="a" d="M104,723.56v21.3h0l28.3,16.3v-11a37.28,37.28,0,0,1-11.9-9.8C115.8,734,106.3,725.56,104,723.56Z"/><path class="a" d="M104,744.86v-52.7l-1.5-.9v54.5q0.45-.3,1.5-0.9h0Z"/><path class="a" d="M66.4,670.46l-28.3-16.3v31.4c2.3,2,11.8,10.4,16.4,16.7,3.4,4.7,8.7,8.1,11.9,9.8v-41.6Z"/><path class="a" d="M36.7,707.66h0l29.8,17.2v-1.8l-28.3-16.3A11,11,0,0,1,36.7,707.66Z"/><polygon class="a" points="33.8 709.36 33.8 651.66 28.4 648.46 28.4 712.46 28.4 712.46 33.8 709.36"/><polygon class="a" points="28.4 712.46 66.4 734.46 66.4 728.16 33.8 709.36 28.4 712.46"/><path class="a" d="M36.7,707.66v-54.5l-2.8-1.6v57.7l32.6,18.8v-3.2l-29.8-17.2h0Z"/><path class="a" d="M38.2,685.56v21.3h0l28.3,16.3v-11a37.28,37.28,0,0,1-11.9-9.8C50,696,40.4,687.46,38.2,685.56Z"/><path class="a" d="M38.2,706.76v-52.7l-1.5-.9v54.5a11,11,0,0,0,1.5-.9h0Z"/><path class="a" d="M198.1,337.46l-28.3-16.3v31.4c2.3,2,11.8,10.4,16.4,16.7,3.4,4.7,8.7,8.1,11.9,9.8v-41.6Z"/><path class="a" d="M168.3,374.76h0L198.1,392v-1.8l-28.3-16.3C169.2,374.26,168.6,374.56,168.3,374.76Z"/><polygon class="a" points="165.5 376.36 165.5 318.66 160.1 315.56 160.1 379.56 160.1 379.56 165.5 376.36"/><polygon class="a" points="160.1 379.56 198.1 401.46 198.1 395.16 165.5 376.36 160.1 379.56"/><path class="a" d="M168.3,374.76v-54.5l-2.8-1.6v57.7l32.6,18.8V392l-29.8-17.2h0Z"/><path class="a" d="M169.9,352.56v21.3h0l28.3,16.3v-11a37.28,37.28,0,0,1-11.9-9.8C181.7,363.06,172.1,354.56,169.9,352.56Z"/><path class="a" d="M169.9,373.86v-52.7l-1.5-.9v54.5a11.29,11.29,0,0,1,1.5-.9h0Z"/><path class="a" d="M132.3,299.46L104,283.16v31.4c2.3,2,11.8,10.4,16.4,16.7,3.4,4.7,8.7,8.1,11.9,9.8v-41.6h0Z"/><path class="a" d="M102.5,336.76h0L132.3,354v-1.8L104,335.86Q103,336.46,102.5,336.76Z"/><polygon class="a" points="99.7 338.36 99.7 280.66 94.2 277.46 94.2 341.46 94.2 341.46 99.7 338.36"/><polygon class="a" points="94.2 341.46 132.3 363.46 132.3 357.16 99.7 338.36 94.2 341.46"/><path class="a" d="M102.5,336.76v-54.5l-2.8-1.6v57.7l32.6,18.8V354l-29.8-17.2h0Z"/><path class="a" d="M104,314.56v21.3h0l28.3,16.3v-11a37.28,37.28,0,0,1-11.9-9.8C115.8,325,106.3,316.56,104,314.56Z"/><path class="a" d="M104,335.86v-52.7l-1.5-.9v54.5q0.45-.3,1.5-0.9h0Z"/><path class="a" d="M66.4,261.46l-28.3-16.3v31.4c2.3,2,11.8,10.4,16.4,16.7,3.4,4.7,8.7,8.1,11.9,9.8v-41.6Z"/><path class="a" d="M36.7,298.76h0L66.5,316v-1.8l-28.3-16.3A11.29,11.29,0,0,0,36.7,298.76Z"/><polygon class="a" points="33.8 300.36 33.8 242.66 28.4 239.46 28.4 303.46 28.4 303.46 33.8 300.36"/><polygon class="a" points="28.4 303.46 66.4 325.46 66.4 319.16 33.8 300.36 28.4 303.46"/><path class="a" d="M36.7,298.76v-54.5l-2.8-1.6v57.7l32.6,18.8V316l-29.8-17.2h0Z"/><path class="a" d="M38.2,276.56v21.3h0l28.3,16.3v-11a37.28,37.28,0,0,1-11.9-9.8C50,287,40.4,278.56,38.2,276.56Z"/><path class="a" d="M38.2,297.86v-52.7l-1.5-.9v54.5a11.29,11.29,0,0,1,1.5-.9h0Z"/><path class="a" d="M198.1,235.26L169.8,219v31.4c2.3,2,11.8,10.4,16.4,16.7,3.4,4.7,8.7,8.1,11.9,9.8v-41.6Z"/><path class="a" d="M168.3,272.46h0l29.8,17.2v-1.8l-28.2-16.2A11.43,11.43,0,0,1,168.3,272.46Z"/><polygon class="a" points="165.5 274.16 165.5 216.46 160.1 213.26 160.1 277.26 160.1 277.26 165.5 274.16"/><polygon class="a" points="160.1 277.26 198.1 299.26 198.1 292.96 165.5 274.16 160.1 277.26"/><path class="a" d="M168.3,272.46V218l-2.8-1.6v57.7l32.6,18.8v-3.2l-29.8-17.2h0Z"/><path class="a" d="M169.9,250.36v21.3h0L198.2,288V277a37.28,37.28,0,0,1-11.9-9.8C181.7,260.76,172.1,252.36,169.9,250.36Z"/><path class="a" d="M169.9,271.66V219l-1.5-.9v54.5a11.29,11.29,0,0,1,1.5-.9h0Z"/><path class="a" d="M132.3,197.26L104,181v31.4c2.3,2,11.8,10.4,16.4,16.7,3.4,4.7,8.7,8.1,11.9,9.8v-41.6h0Z"/><path class="a" d="M102.5,234.46h0l29.8,17.2v-1.8L104,233.66A12,12,0,0,1,102.5,234.46Z"/><polygon class="a" points="99.7 236.16 99.7 178.46 94.2 175.26 94.2 239.26 94.2 239.26 99.7 236.16"/><polygon class="a" points="94.2 239.26 132.3 261.26 132.3 254.96 99.7 236.16 94.2 239.26"/><path class="a" d="M102.5,234.46V180l-2.8-1.6v57.7l32.6,18.8v-3.2l-29.8-17.2h0Z"/><path class="a" d="M104,212.36v21.3h0L132.3,250V239a37.28,37.28,0,0,1-11.9-9.8C115.8,222.76,106.3,214.36,104,212.36Z"/><path class="a" d="M104,233.56v-52.7l-1.5-.9v54.5a7.05,7.05,0,0,0,1.5-.9h0Z"/><path class="a" d="M66.4,159.26L38.1,143v31.4c2.3,2,11.8,10.4,16.4,16.7,3.4,4.7,8.7,8.1,11.9,9.8v-41.6Z"/><path class="a" d="M36.7,196.46h0l29.8,17.2v-1.8l-28.3-16.3C37.5,196,36.9,196.36,36.7,196.46Z"/><polygon class="a" points="33.8 198.06 33.8 140.36 28.4 137.26 28.4 201.26 28.4 201.26 33.8 198.06"/><polygon class="a" points="28.4 201.26 66.4 223.16 66.4 216.96 33.8 198.06 28.4 201.26"/><path class="a" d="M36.7,196.46V142l-2.8-1.6v57.7l32.6,18.8v-3.2l-29.8-17.2h0Z"/><path class="a" d="M38.2,174.36v21.3h0L66.5,212V201a37.28,37.28,0,0,1-11.9-9.8C50,184.76,40.4,176.26,38.2,174.36Z"/><path class="a" d="M38.2,195.56v-52.7l-1.5-.9v54.5c0.2-.1.8-0.5,1.5-0.9h0Z"/><polygon class="a" points="416.3 940.66 454.8 963.36 454.8 884.46 416 895.96 416.3 940.66"/><polygon class="a" points="434.1 951.36 343 1003.96 343 912.56 434.2 859.86 434.2 951.36 434.1 951.36"/><polygon class="a" points="225.4 187.76 225.4 1095.76 363.6 1015.96 363.6 908.96 454.8 856.26 454.8 963.36 546.2 910.56 546.2 2.56 225.4 187.76"/><path class="a" d="M343.9,390.06l28.3-16.3v31.4c-2.3,2-11.8,10.4-16.4,16.7-3.4,4.7-8.7,8.1-11.9,9.8v-41.6Z"/><path class="a" d="M373.7,427.36h0l-29.8,17.2v-1.8l28.3-16.3Q373.25,427.06,373.7,427.36Z"/><polygon class="a" points="376.5 428.96 376.5 371.26 382 368.16 382 432.16 381.9 432.16 376.5 428.96"/><polygon class="a" points="381.9 432.16 343.9 454.06 343.9 447.76 376.5 428.96 381.9 432.16"/><path class="a" d="M373.7,427.36v-54.5l2.8-1.6V429l-32.6,18.8v-3.2l29.8-17.2h0Z"/><path class="a" d="M372.2,405.16v21.3h0l-28.3,16.3v-11a37.28,37.28,0,0,0,11.9-9.8C360.4,415.66,369.9,407.16,372.2,405.16Z"/><path class="a" d="M372.2,426.46v-52.7l1.5-.9v54.5q-0.45-.3-1.5-0.9h0Z"/><path class="a" d="M285,424.06l28.3-16.3v31.4c-2.3,2-11.8,10.4-16.4,16.7-3.4,4.7-8.7,8.1-11.9,9.8v-41.6Z"/><path class="a" d="M314.8,461.36h0L285,478.56v-1.8l28.3-16.3A11.29,11.29,0,0,1,314.8,461.36Z"/><polygon class="a" points="317.6 462.96 317.6 405.26 323.1 402.06 323.1 466.06 323.1 466.06 317.6 462.96"/><polygon class="a" points="323.1 466.06 285 488.06 285 481.76 317.6 462.96 323.1 466.06"/><path class="a" d="M314.8,461.36v-54.5l2.8-1.6V463L285,481.76v-3.2l29.8-17.2h0Z"/><path class="a" d="M313.3,439.16v21.3h0L285,476.76v-11a37.28,37.28,0,0,0,11.9-9.8C301.5,449.56,311.1,441.16,313.3,439.16Z"/><path class="a" d="M313.3,460.46v-52.7l1.5-.9v54.5a11.3,11.3,0,0,0-1.5-.9h0Z"/><path class="a" d="M404.1,355.36l28.3-16.3v31.4c-2.3,2-11.8,10.4-16.4,16.7-3.4,4.7-8.7,8.1-11.9,9.8v-41.6Z"/><path class="a" d="M433.9,392.56h0l-29.8,17.2V408l28.3-16.3A7.05,7.05,0,0,0,433.9,392.56Z"/><polygon class="a" points="436.7 394.26 436.7 336.56 442.2 333.36 442.2 397.36 442.1 397.36 436.7 394.26"/><polygon class="a" points="442.1 397.36 404.1 419.36 404.1 413.06 436.7 394.26 442.1 397.36"/><path class="a" d="M433.9,392.56v-54.5l2.8-1.6v57.7L404.1,413v-3.2l29.8-17.2h0Z"/><path class="a" d="M432.4,370.46v21.3h0l-28.3,16.3v-11a37.28,37.28,0,0,0,11.9-9.8C420.6,380.86,430.1,372.46,432.4,370.46Z"/><path class="a" d="M432.4,391.76v-52.7l1.5-.9v54.5q-0.45-.3-1.5-0.9h0Z"/><path class="a" d="M463.6,321l28.3-16.3v31.4c-2.3,2-11.8,10.4-16.4,16.7-3.4,4.7-8.7,8.1-11.9,9.8V321h0Z"/><path class="a" d="M493.4,358.26h0l-29.8,17.2v-1.8l28.3-16.3Q492.95,358,493.4,358.26Z"/><polygon class="a" points="496.2 359.86 496.2 302.16 501.7 298.96 501.7 362.96 501.7 362.96 496.2 359.86"/><polygon class="a" points="501.7 362.96 463.6 384.96 463.6 378.66 496.2 359.86 501.7 362.96"/><path class="a" d="M493.4,358.26v-54.5l2.8-1.6v57.7l-32.6,18.8v-3.2l29.8-17.2h0Z"/><path class="a" d="M491.9,336.06v21.3h0l-28.3,16.3v-11a37.28,37.28,0,0,0,11.9-9.8C480.1,346.46,489.6,338.06,491.9,336.06Z"/><path class="a" d="M491.9,357.36v-52.7l1.5-.9v54.5q-0.45-.3-1.5-0.9h0Z"/><path class="a" d="M343.9,492.66l28.3-16.3v31.4c-2.3,2-11.8,10.4-16.4,16.7-3.4,4.7-8.7,8.1-11.9,9.8v-41.6Z"/><path class="a" d="M373.7,530h0l-29.8,17.2v-1.8l28.3-16.3Q373.25,529.66,373.7,530Z"/><polygon class="a" points="376.5 531.56 376.5 473.86 382 470.76 382 534.76 381.9 534.76 376.5 531.56"/><polygon class="a" points="381.9 534.76 343.9 556.66 343.9 550.36 376.5 531.56 381.9 534.76"/><path class="a" d="M373.7,530v-54.5l2.8-1.6v57.7l-32.6,18.8v-3.2L373.7,530h0Z"/><path class="a" d="M372.2,507.76v21.3h0l-28.3,16.3v-11a37.28,37.28,0,0,0,11.9-9.8C360.4,518.26,369.9,509.76,372.2,507.76Z"/><path class="a" d="M372.2,529.06v-52.7l1.5-.9V530q-0.45-.3-1.5-0.9h0Z"/><path class="a" d="M285,526.66l28.3-16.3v31.4c-2.3,2-11.8,10.4-16.4,16.7-3.4,4.7-8.7,8.1-11.9,9.8v-41.6Z"/><path class="a" d="M314.8,564h0L285,581.16v-1.8l28.3-16.3A11.29,11.29,0,0,1,314.8,564Z"/><polygon class="a" points="317.6 565.56 317.6 507.86 323.1 504.66 323.1 568.66 323.1 568.66 317.6 565.56"/><polygon class="a" points="323.1 568.66 285 590.66 285 584.36 317.6 565.56 323.1 568.66"/><path class="a" d="M314.8,564v-54.5l2.8-1.6v57.7L285,584.36v-3.2L314.8,564h0Z"/><path class="a" d="M313.3,541.76v21.3h0L285,579.36v-11a37.28,37.28,0,0,0,11.9-9.8C301.5,552.16,311.1,543.76,313.3,541.76Z"/><path class="a" d="M313.3,563.06v-52.7l1.5-.9V564a11.29,11.29,0,0,0-1.5-.9h0Z"/><path class="a" d="M404.1,458l28.3-16.3v31.4c-2.3,2-11.8,10.4-16.4,16.7-3.4,4.7-8.7,8.1-11.9,9.8V458Z"/><path class="a" d="M433.9,495.16h0l-29.8,17.2v-1.7l28.3-16.3A12,12,0,0,0,433.9,495.16Z"/><polygon class="a" points="436.7 496.86 436.7 439.16 442.2 435.96 442.2 499.96 442.1 499.96 436.7 496.86"/><polygon class="a" points="442.1 499.96 404.1 521.96 404.1 515.66 436.7 496.86 442.1 499.96"/><path class="a" d="M433.9,495.16v-54.5l2.8-1.6v57.7l-32.6,18.9v-3.2l29.8-17.3h0Z"/><path class="a" d="M432.4,473.06v21.3h0l-28.3,16.3v-11a37.28,37.28,0,0,0,11.9-9.8C420.6,483.46,430.1,475.06,432.4,473.06Z"/><path class="a" d="M432.4,494.36v-52.7l1.5-.9v54.5q-0.45-.3-1.5-0.9h0Z"/><path class="a" d="M463.6,423.56l28.3-16.3v31.4c-2.3,2-11.8,10.4-16.4,16.7-3.4,4.7-8.7,8.1-11.9,9.8v-41.6h0Z"/><path class="a" d="M493.4,460.86h0l-29.8,17.2v-1.8L491.9,460Q492.95,460.56,493.4,460.86Z"/><polygon class="a" points="496.2 462.46 496.2 404.76 501.7 401.56 501.7 465.56 501.7 465.56 496.2 462.46"/><polygon class="a" points="501.7 465.56 463.6 487.56 463.6 481.26 496.2 462.46 501.7 465.56"/><path class="a" d="M493.4,460.86v-54.5l2.8-1.6v57.7l-32.6,18.8v-3.2l29.8-17.2h0Z"/><path class="a" d="M491.9,438.66V460h0l-28.3,16.3v-11a37.28,37.28,0,0,0,11.9-9.8C480.1,449.06,489.6,440.66,491.9,438.66Z"/><path class="a" d="M491.9,460v-52.7l1.5-.9v54.5q-0.45-.3-1.5-0.9h0Z"/><path class="a" d="M343.9,595.26L372.2,579v31.4c-2.3,2-11.8,10.4-16.4,16.7-3.4,4.7-8.7,8.1-11.9,9.8v-41.6Z"/><path class="a" d="M373.7,632.56h0l-29.8,17.2V648l28.3-16.3Q373.25,632.26,373.7,632.56Z"/><polygon class="a" points="376.5 634.16 376.5 576.46 382 573.36 382 637.26 381.9 637.36 376.5 634.16"/><polygon class="a" points="381.9 637.36 343.9 659.26 343.9 652.96 376.5 634.16 381.9 637.36"/><path class="a" d="M373.7,632.56v-54.5l2.8-1.6v57.7L343.9,653v-3.2l29.8-17.2h0Z"/><path class="a" d="M372.2,610.36v21.3h0L343.9,648V637a37.28,37.28,0,0,0,11.9-9.8C360.4,620.76,369.9,612.36,372.2,610.36Z"/><path class="a" d="M372.2,631.66V579l1.5-.9v54.5q-0.45-.3-1.5-0.9h0Z"/><path class="a" d="M285,629.26L313.3,613v31.4c-2.3,2-11.8,10.4-16.4,16.7-3.4,4.7-8.7,8.1-11.9,9.8v-41.6Z"/><path class="a" d="M314.8,666.56h0L285,683.76V682l28.3-16.3A11.3,11.3,0,0,1,314.8,666.56Z"/><polygon class="a" points="317.6 668.16 317.6 610.46 323.1 607.26 323.1 671.26 323.1 671.26 317.6 668.16"/><polygon class="a" points="323.1 671.26 285 693.26 285 686.96 317.6 668.16 323.1 671.26"/><path class="a" d="M314.8,666.56v-54.5l2.8-1.6v57.7L285,687v-3.2l29.8-17.2h0Z"/><path class="a" d="M313.3,644.36v21.3h0L285,682V671a37.28,37.28,0,0,0,11.9-9.8C301.5,654.76,311.1,646.36,313.3,644.36Z"/><path class="a" d="M313.3,665.66V613l1.5-.9v54.5a11.3,11.3,0,0,0-1.5-.9h0Z"/><path class="a" d="M404.1,560.56l28.3-16.3v31.4c-2.3,2-11.8,10.4-16.4,16.7-3.4,4.7-8.7,8.1-11.9,9.8v-41.6Z"/><path class="a" d="M433.9,597.76h0L404.1,615v-1.8l28.3-16.3A7,7,0,0,0,433.9,597.76Z"/><polygon class="a" points="436.7 599.46 436.7 541.76 442.2 538.56 442.2 602.56 442.1 602.56 436.7 599.46"/><polygon class="a" points="442.1 602.56 404.1 624.56 404.1 618.26 436.7 599.46 442.1 602.56"/><path class="a" d="M433.9,597.76v-54.5l2.8-1.6v57.7l-32.6,18.8V615l29.8-17.2h0Z"/><path class="a" d="M432.4,575.66V597h0l-28.3,16.3v-11a37.28,37.28,0,0,0,11.9-9.8C420.6,586.06,430.1,577.66,432.4,575.66Z"/><path class="a" d="M432.4,597v-52.7l1.5-.9v54.5q-0.45-.3-1.5-0.9h0Z"/><path class="a" d="M463.6,526.16l28.3-16.3v31.4c-2.3,2-11.8,10.4-16.4,16.7-3.4,4.7-8.7,8.1-11.9,9.8v-41.6h0Z"/><path class="a" d="M493.4,563.46h0l-29.8,17.2v-1.8l28.3-16.3Q492.95,563.16,493.4,563.46Z"/><polygon class="a" points="496.2 565.06 496.2 507.36 501.7 504.16 501.7 568.16 501.7 568.16 496.2 565.06"/><polygon class="a" points="501.7 568.16 463.6 590.16 463.6 583.86 496.2 565.06 501.7 568.16"/><path class="a" d="M493.4,563.46V509l2.8-1.6v57.7l-32.6,18.8v-3.2l29.8-17.2h0Z"/><path class="a" d="M491.9,541.26v21.3h0l-28.3,16.3v-11a37.28,37.28,0,0,0,11.9-9.8C480.1,551.66,489.6,543.26,491.9,541.26Z"/><path class="a" d="M491.9,562.56v-52.7l1.5-.9v54.5q-0.45-.3-1.5-0.9h0Z"/><path class="a" d="M343.9,697.86l28.3-16.3V713c-2.3,2-11.8,10.4-16.4,16.7-3.4,4.7-8.7,8.1-11.9,9.8v-41.6Z"/><path class="a" d="M373.7,735.16h0l-29.8,17.2v-1.8l28.3-16.3Q373.25,734.86,373.7,735.16Z"/><polygon class="a" points="376.5 736.76 376.5 679.06 382 675.96 382 739.86 381.9 739.96 376.5 736.76"/><polygon class="a" points="381.9 739.96 343.9 761.86 343.9 755.56 376.5 736.76 381.9 739.96"/><path class="a" d="M373.7,735.16v-54.5l2.8-1.6v57.7l-32.6,18.8v-3.2l29.8-17.2h0Z"/><path class="a" d="M372.2,713v21.3h0l-28.3,16.3v-11a37.28,37.28,0,0,0,11.9-9.8C360.4,723.36,369.9,715,372.2,713Z"/><path class="a" d="M372.2,734.26v-52.7l1.5-.9v54.5q-0.45-.3-1.5-0.9h0Z"/><path class="a" d="M285,731.86l28.3-16.3V747c-2.3,2-11.8,10.4-16.4,16.7-3.4,4.7-8.7,8.1-11.9,9.8v-41.6Z"/><path class="a" d="M314.8,769.16h0L285,786.36v-1.8l28.3-16.3A11.29,11.29,0,0,1,314.8,769.16Z"/><polygon class="a" points="317.6 770.76 317.6 713.06 323.1 709.86 323.1 773.86 323.1 773.86 317.6 770.76"/><polygon class="a" points="323.1 773.86 285 795.86 285 789.56 317.6 770.76 323.1 773.86"/><path class="a" d="M314.8,769.16v-54.5l2.8-1.6v57.7L285,789.56v-3.2l29.8-17.2h0Z"/><path class="a" d="M313.3,747v21.3h0L285,784.56v-11a37.28,37.28,0,0,0,11.9-9.8C301.5,757.36,311.1,749,313.3,747Z"/><path class="a" d="M313.3,768.26v-52.7l1.5-.9v54.5a11.3,11.3,0,0,0-1.5-.9h0Z"/><path class="a" d="M404.1,663.16l28.3-16.3v31.4c-2.3,2-11.8,10.4-16.4,16.7-3.4,4.7-8.7,8.1-11.9,9.8v-41.6Z"/><path class="a" d="M433.9,700.36h0l-29.8,17.2v-1.8l28.3-16.3A7.05,7.05,0,0,0,433.9,700.36Z"/><polygon class="a" points="436.7 702.06 436.7 644.36 442.2 641.16 442.2 705.16 442.1 705.16 436.7 702.06"/><polygon class="a" points="442.1 705.16 404.1 727.16 404.1 720.86 436.7 702.06 442.1 705.16"/><path class="a" d="M433.9,700.36v-54.5l2.8-1.6V702l-32.6,18.8v-3.2l29.8-17.2h0Z"/><path class="a" d="M432.4,678.26v21.3h0l-28.3,16.3v-11a37.28,37.28,0,0,0,11.9-9.8C420.6,688.66,430.1,680.26,432.4,678.26Z"/><path class="a" d="M432.4,699.56v-52.7l1.5-.9v54.5q-0.45-.3-1.5-0.9h0Z"/><path class="a" d="M463.6,628.76l28.3-16.3v31.4c-2.3,2-11.8,10.4-16.4,16.7-3.4,4.7-8.7,8.1-11.9,9.8v-41.6h0Z"/><path class="a" d="M493.4,666.06h0l-29.8,17.2v-1.8l28.3-16.3Q492.95,665.76,493.4,666.06Z"/><polygon class="a" points="496.2 667.66 496.2 609.96 501.7 606.76 501.7 670.76 501.7 670.76 496.2 667.66"/><polygon class="a" points="501.7 670.76 463.6 692.76 463.6 686.46 496.2 667.66 501.7 670.76"/><path class="a" d="M493.4,666.06v-54.5l2.8-1.6v57.7l-32.6,18.8v-3.2l29.8-17.2h0Z"/><path class="a" d="M491.9,643.86v21.3h0l-28.3,16.3v-11a37.28,37.28,0,0,0,11.9-9.8C480.1,654.26,489.6,645.86,491.9,643.86Z"/><path class="a" d="M491.9,665.16v-52.7l1.5-.9v54.5q-0.45-.3-1.5-0.9h0Z"/><path class="a" d="M343.9,800.46l28.3-16.3v31.4c-2.3,2-11.8,10.4-16.4,16.7-3.4,4.7-8.7,8.1-11.9,9.8v-41.6Z"/><path class="a" d="M373.7,837.76h0L343.9,855v-1.8l28.3-16.3Q373.25,837.46,373.7,837.76Z"/><polygon class="a" points="376.5 839.36 376.5 781.66 382 778.56 382 842.46 381.9 842.46 376.5 839.36"/><polygon class="a" points="381.9 842.46 343.9 864.46 343.9 858.16 376.5 839.36 381.9 842.46"/><path class="a" d="M373.7,837.76v-54.5l2.8-1.6v57.7l-32.6,18.8V855l29.8-17.2h0Z"/><path class="a" d="M372.2,815.56v21.3h0l-28.3,16.3v-11a37.28,37.28,0,0,0,11.9-9.8C360.4,826,369.9,817.56,372.2,815.56Z"/><path class="a" d="M372.2,836.86v-52.7l1.5-.9v54.5q-0.45-.3-1.5-0.9h0Z"/><path class="a" d="M285,834.46l28.3-16.3v31.4c-2.3,2-11.8,10.4-16.4,16.7-3.4,4.7-8.7,8.1-11.9,9.8v-41.6Z"/><path class="a" d="M314.8,871.76h0L285,889v-1.8l28.3-16.3A11.3,11.3,0,0,1,314.8,871.76Z"/><polygon class="a" points="317.6 873.36 317.6 815.66 323.1 812.46 323.1 876.46 323.1 876.46 317.6 873.36"/><polygon class="a" points="323.1 876.46 285 898.46 285 892.16 317.6 873.36 323.1 876.46"/><path class="a" d="M314.8,871.76v-54.5l2.8-1.6v57.7L285,892.16V889l29.8-17.2h0Z"/><path class="a" d="M313.3,849.56v21.3h0L285,887.16v-11a37.28,37.28,0,0,0,11.9-9.8C301.5,860,311.1,851.56,313.3,849.56Z"/><path class="a" d="M313.3,870.86v-52.7l1.5-.9v54.5a11.3,11.3,0,0,0-1.5-.9h0Z"/><path class="a" d="M404.1,765.76l28.3-16.3v31.4c-2.3,2-11.8,10.4-16.4,16.7-3.4,4.7-8.7,8.1-11.9,9.8v-41.6Z"/><path class="a" d="M433.9,803h0l-29.8,17.2v-1.8l28.3-16.3A7,7,0,0,0,433.9,803Z"/><polygon class="a" points="436.7 804.66 436.7 746.96 442.2 743.76 442.2 807.76 442.1 807.76 436.7 804.66"/><polygon class="a" points="442.1 807.76 404.1 829.76 404.1 823.46 436.7 804.66 442.1 807.76"/><path class="a" d="M433.9,803v-54.5l2.8-1.6v57.8l-32.6,18.8v-3.2L433.9,803h0Z"/><path class="a" d="M432.4,780.86v21.3h0l-28.3,16.3v-11a37.28,37.28,0,0,0,11.9-9.8C420.6,791.26,430.1,782.86,432.4,780.86Z"/><path class="a" d="M432.4,802.06v-52.7l1.5-.9V803a7,7,0,0,1-1.5-.9h0Z"/><path class="a" d="M463.6,731.36l28.3-16.3v31.4c-2.3,2-11.8,10.4-16.4,16.7-3.4,4.7-8.7,8.1-11.9,9.8v-41.6h0Z"/><path class="a" d="M493.4,768.66h0l-29.8,17.2v-1.8l28.3-16.3Q492.95,768.36,493.4,768.66Z"/><polygon class="a" points="496.2 770.26 496.2 712.56 501.7 709.36 501.7 773.36 501.7 773.36 496.2 770.26"/><polygon class="a" points="501.7 773.36 463.6 795.36 463.6 789.06 496.2 770.26 501.7 773.36"/><path class="a" d="M493.4,768.66v-54.5l2.8-1.6v57.7l-32.6,18.8v-3.2l29.8-17.2h0Z"/><path class="a" d="M491.9,746.46v21.3h0l-28.3,16.3v-11a37.28,37.28,0,0,0,11.9-9.8C480.1,756.86,489.6,748.46,491.9,746.46Z"/><path class="a" d="M491.9,767.76v-52.7l1.5-.9v54.5q-0.45-.3-1.5-0.9h0Z"/><path class="a" d="M343.9,287.46l28.3-16.3v31.4c-2.3,2-11.8,10.4-16.4,16.7-3.4,4.7-8.7,8.1-11.9,9.8v-41.6Z"/><path class="a" d="M373.7,324.76h0L343.9,342v-1.8l28.3-16.3Q373.25,324.46,373.7,324.76Z"/><polygon class="a" points="376.5 326.36 376.5 268.66 382 265.56 382 329.56 381.9 329.56 376.5 326.36"/><polygon class="a" points="381.9 329.56 343.9 351.46 343.9 345.16 376.5 326.36 381.9 329.56"/><path class="a" d="M373.7,324.76v-54.5l2.8-1.6v57.7l-32.6,18.8V342l29.8-17.2h0Z"/><path class="a" d="M372.2,302.56v21.3h0l-28.3,16.3v-11a37.28,37.28,0,0,0,11.9-9.8C360.4,313.06,369.9,304.56,372.2,302.56Z"/><path class="a" d="M372.2,323.86v-52.7l1.5-.9v54.5q-0.45-.3-1.5-0.9h0Z"/><path class="a" d="M285,321.46l28.3-16.3v31.4c-2.3,2-11.8,10.4-16.4,16.7-3.4,4.7-8.7,8.1-11.9,9.8v-41.6Z"/><path class="a" d="M314.8,358.76h0L285,376v-1.8l28.3-16.3A11.29,11.29,0,0,1,314.8,358.76Z"/><polygon class="a" points="317.6 360.36 317.6 302.66 323.1 299.56 323.1 363.46 323.1 363.46 317.6 360.36"/><polygon class="a" points="323.1 363.46 285 385.46 285 379.16 317.6 360.36 323.1 363.46"/><path class="a" d="M314.8,358.76v-54.5l2.8-1.6v57.7L285,379.16V376l29.8-17.2h0Z"/><path class="a" d="M313.3,336.56v21.3h0L285,374.16v-11a37.28,37.28,0,0,0,11.9-9.8C301.5,347,311.1,338.56,313.3,336.56Z"/><path class="a" d="M313.3,357.86v-52.7l1.5-.9v54.5a11.29,11.29,0,0,0-1.5-.9h0Z"/><path class="a" d="M404.1,252.76l28.3-16.3v31.4c-2.3,2-11.8,10.4-16.4,16.7-3.4,4.7-8.7,8.1-11.9,9.8v-41.6Z"/><path class="a" d="M433.9,290h0l-29.8,17.2v-1.8l28.3-16.3A7.05,7.05,0,0,0,433.9,290Z"/><polygon class="a" points="436.7 291.66 436.7 233.96 442.2 230.76 442.2 294.76 442.1 294.76 436.7 291.66"/><polygon class="a" points="442.1 294.76 404.1 316.76 404.1 310.46 436.7 291.66 442.1 294.76"/><path class="a" d="M433.9,290v-54.5l2.8-1.6v57.8l-32.6,18.8v-3.2L433.9,290h0Z"/><path class="a" d="M432.4,267.86v21.3h0l-28.3,16.3v-11a37.28,37.28,0,0,0,11.9-9.8C420.6,278.26,430.1,269.86,432.4,267.86Z"/><path class="a" d="M432.4,289.16v-52.7l1.5-.9v54.5q-0.45-.3-1.5-0.9h0Z"/><path class="a" d="M463.6,218.36l28.3-16.3v31.4c-2.3,2-11.8,10.4-16.4,16.7-3.4,4.7-8.7,8.1-11.9,9.8v-41.6h0Z"/><path class="a" d="M493.4,255.66h0l-29.8,17.2v-1.8l28.3-16.3Q492.95,255.36,493.4,255.66Z"/><polygon class="a" points="496.2 257.26 496.2 199.56 501.7 196.46 501.7 260.36 501.7 260.36 496.2 257.26"/><polygon class="a" points="501.7 260.36 463.6 282.36 463.6 276.06 496.2 257.26 501.7 260.36"/><path class="a" d="M493.4,255.66v-54.5l2.8-1.6v57.7l-32.6,18.8v-3.2l29.8-17.2h0Z"/><path class="a" d="M491.9,233.46v21.3h0l-28.3,16.3v-11a37.28,37.28,0,0,0,11.9-9.8C480.1,243.86,489.6,235.46,491.9,233.46Z"/><path class="a" d="M491.9,254.76v-52.7l1.5-.9v54.5q-0.45-.3-1.5-0.9h0Z"/><path class="a" d="M343.9,184.86l28.3-16.3V200c-2.3,2-11.8,10.4-16.4,16.7-3.4,4.7-8.7,8.1-11.9,9.8v-41.6Z"/><path class="a" d="M373.7,222.16h0l-29.8,17.2v-1.8l28.3-16.3Q373.25,221.86,373.7,222.16Z"/><polygon class="a" points="376.5 223.76 376.5 166.06 382 162.96 382 226.96 381.9 226.96 376.5 223.76"/><polygon class="a" points="381.9 226.96 343.9 248.86 343.9 242.56 376.5 223.76 381.9 226.96"/><path class="a" d="M373.7,222.16v-54.5l2.8-1.6v57.7l-32.6,18.8v-3.2l29.8-17.2h0Z"/><path class="a" d="M372.2,200v21.3h0l-28.3,16.3v-11a37.28,37.28,0,0,0,11.9-9.8C360.4,210.46,369.9,202,372.2,200Z"/><path class="a" d="M372.2,221.26v-52.7l1.5-.9v54.5q-0.45-.3-1.5-0.9h0Z"/><path class="a" d="M285,218.86l28.3-16.3V234c-2.3,2-11.8,10.4-16.4,16.7-3.4,4.7-8.7,8.1-11.9,9.8v-41.6Z"/><path class="a" d="M314.8,256.16h0L285,273.36v-1.8l28.3-16.3A11.29,11.29,0,0,1,314.8,256.16Z"/><polygon class="a" points="317.6 257.76 317.6 200.06 323.1 196.96 323.1 260.86 323.1 260.86 317.6 257.76"/><polygon class="a" points="323.1 260.86 285 282.86 285 276.56 317.6 257.76 323.1 260.86"/><path class="a" d="M314.8,256.16v-54.5l2.8-1.6v57.7L285,276.56v-3.2l29.8-17.2h0Z"/><path class="a" d="M313.3,234v21.3h0L285,271.56v-11a37.28,37.28,0,0,0,11.9-9.8C301.5,244.36,311.1,236,313.3,234Z"/><path class="a" d="M313.3,255.26v-52.7l1.5-.9v54.5a11.29,11.29,0,0,0-1.5-.9h0Z"/><path class="a" d="M404.1,150.16l28.3-16.3v31.4c-2.3,2-11.8,10.4-16.4,16.7-3.4,4.7-8.7,8.1-11.9,9.8v-41.6Z"/><path class="a" d="M433.9,187.36h0l-29.8,17.3v-1.8l28.3-16.3A12,12,0,0,0,433.9,187.36Z"/><polygon class="a" points="436.7 189.06 436.7 131.36 442.2 128.16 442.2 192.16 442.1 192.16 436.7 189.06"/><polygon class="a" points="442.1 192.16 404.1 214.16 404.1 207.86 436.7 189.06 442.1 192.16"/><path class="a" d="M433.9,187.36v-54.5l2.8-1.6V189l-32.6,18.8v-3.1l29.8-17.3h0Z"/><path class="a" d="M432.4,165.26v21.3h0l-28.3,16.3v-11a37.28,37.28,0,0,0,11.9-9.8C420.6,175.66,430.1,167.26,432.4,165.26Z"/><path class="a" d="M432.4,186.56v-52.7l1.5-.9v54.5q-0.45-.3-1.5-0.9h0Z"/><path class="a" d="M463.6,115.76l28.3-16.3v31.4c-2.3,2-11.8,10.4-16.4,16.7-3.4,4.7-8.7,8.1-11.9,9.8v-41.6h0Z"/><path class="a" d="M493.4,153.06h0l-29.8,17.2v-1.8l28.3-16.3Q492.95,152.76,493.4,153.06Z"/><polygon class="a" points="496.2 154.66 496.2 96.96 501.7 93.86 501.7 157.76 501.7 157.76 496.2 154.66"/><polygon class="a" points="501.7 157.76 463.6 179.76 463.6 173.46 496.2 154.66 501.7 157.76"/><path class="a" d="M493.4,153.06V98.56l2.8-1.6v57.7l-32.6,18.8v-3.2l29.8-17.2h0Z"/><path class="a" d="M491.9,130.86v21.3h0l-28.3,16.3v-11a37.28,37.28,0,0,0,11.9-9.8C480.1,141.26,489.6,132.86,491.9,130.86Z"/><path class="a" d="M491.9,152.16V99.46l1.5-.9v54.5q-0.45-.3-1.5-0.9h0Z"/><polygon class="a" points="385.4 926.76 385.4 926.76 385.4 926.76 385.4 940.96 385.3 941.06 338.4 913.96 338.4 891.36 385.4 926.76"/><polygon class="a" points="502.3 873.46 385.4 940.96 385.4 926.76 385.4 926.76 502.3 859.16 502.3 859.26 502.3 873.46"/><polygon class="a" points="338.4 891.36 338.4 891.36 455.4 823.86 502.3 859.16 385.4 926.76 385.4 926.76 385.4 926.76 338.4 891.36"/><line class="b" x1="547.3" y1="907.36" x2="468.6" y2="952.76"/><path class="a" d="M542.4,815"/><path class="c" d="M468.6,952.76c2.3,1.2-13.8,10.5-13.8,10.5l-20.6-12-70.6,40.8V1016l-137.4,79.2L2.5,966V58l222.9,129.8S552.8-1.24,546.2,2.56s0,780.8,0,780.8v124.1"/></svg>