<svg xmlns="http://www.w3.org/2000/svg" viewBox="0 0 837.4 1013.62"><defs><style>.a{fill:#ccc;stroke:#212121;stroke-width:2px;}.a,.b{stroke-miterlimit:10;}.b{fill:none;stroke:#282828;stroke-width:5px;}</style></defs><title>upper_right</title><polygon class="a" points="834.9 714.83 323.3 1010.13 323.3 299.63 834.9 4.33 834.9 714.83"/><path class="a" d="M428.1,489.13l28.3-16.3v31.4c-2.3,2-11.8,10.4-16.4,16.7-3.4,4.7-8.7,8.1-11.9,9.8v-41.6h0Z"/><path class="a" d="M457.9,526.43h0l-29.8,17.2v-1.8l28.3-16.3A11.3,11.3,0,0,1,457.9,526.43Z"/><polygon class="a" points="460.7 528.03 460.7 470.33 466.2 467.13 466.2 531.13 466.2 531.13 460.7 528.03"/><polygon class="a" points="466.2 531.13 428.1 553.13 428.1 546.83 460.7 528.03 466.2 531.13"/><path class="a" d="M457.9,526.43v-54.5l2.8-1.6V528l-32.6,18.8v-3.2l29.8-17.2h0Z"/><path class="a" d="M456.4,504.23v21.3h0l-28.3,16.3v-11A37.28,37.28,0,0,0,440,521C444.6,514.63,454.2,506.23,456.4,504.23Z"/><path class="a" d="M456.4,525.53v-52.7l1.5-.9v54.5a11.3,11.3,0,0,0-1.5-.9h0Z"/><path class="a" d="M369.3,523.13l28.3-16.3v31.4c-2.3,2-11.8,10.4-16.4,16.7-3.4,4.7-8.7,8.1-11.9,9.8v-41.6Z"/><path class="a" d="M399.1,560.43h0l-29.8,17.2v-1.8l28.3-16.3Q398.65,560.13,399.1,560.43Z"/><polygon class="a" points="401.9 562.03 401.9 504.33 407.3 501.13 407.3 565.13 407.3 565.13 401.9 562.03"/><polygon class="a" points="407.3 565.13 369.3 587.13 369.3 580.83 401.9 562.03 407.3 565.13"/><path class="a" d="M399.1,560.43v-54.5l2.8-1.6V562l-32.6,18.8v-3.2l29.8-17.2h0Z"/><path class="a" d="M397.6,538.23v21.3h0l-28.3,16.3v-11a37.28,37.28,0,0,0,11.9-9.8C385.8,548.63,395.3,540.23,397.6,538.23Z"/><path class="a" d="M397.6,559.53v-52.7l1.5-.9v54.5q-0.45-.3-1.5-0.9h0Z"/><path class="a" d="M488.3,454.43l28.3-16.3v31.4c-2.3,2-11.8,10.4-16.4,16.7-3.4,4.7-8.7,8.1-11.9,9.8v-41.6h0Z"/><path class="a" d="M518.1,491.63h0l-29.8,17.2V507l28.3-16.3C517.3,491.13,517.9,491.53,518.1,491.63Z"/><polygon class="a" points="520.9 493.23 520.9 435.53 526.4 432.43 526.4 496.43 526.4 496.43 520.9 493.23"/><polygon class="a" points="526.4 496.43 488.3 518.43 488.3 512.13 520.9 493.23 526.4 496.43"/><path class="a" d="M518.1,491.63v-54.5l2.8-1.6v57.7L488.3,512v-3.2l29.8-17.2h0Z"/><path class="a" d="M516.6,469.53v21.3h0l-28.3,16.3v-11a37.28,37.28,0,0,0,11.9-9.8C504.8,479.93,514.4,471.43,516.6,469.53Z"/><path class="a" d="M516.6,490.73V438l1.5-.9v54.5c-0.2-.1-0.8-0.5-1.5-0.9h0Z"/><path class="a" d="M547.9,420l28.3-16.3v31.4c-2.3,2-11.8,10.4-16.4,16.7-3.4,4.7-8.7,8.1-11.9,9.8V420h0Z"/><path class="a" d="M577.7,457.33h0l-29.8,17.2v-1.8l28.3-16.3C576.8,456.83,577.4,457.13,577.7,457.33Z"/><polygon class="a" points="580.5 458.93 580.5 401.23 585.9 398.03 585.9 462.03 585.9 462.03 580.5 458.93"/><polygon class="a" points="585.9 462.03 547.9 484.03 547.9 477.73 580.5 458.93 585.9 462.03"/><path class="a" d="M577.7,457.33v-54.5l2.8-1.6v57.7l-32.6,18.8v-3.2l29.8-17.2h0Z"/><path class="a" d="M576.1,435.13v21.3h0l-28.3,16.3v-11a37.28,37.28,0,0,0,11.9-9.8C564.3,445.53,573.9,437.13,576.1,435.13Z"/><path class="a" d="M576.1,456.43v-52.7l1.5-.9v54.5a11.3,11.3,0,0,0-1.5-.9h0Z"/><path class="a" d="M607.4,385.63l28.3-16.3v31.4c-2.3,2-11.8,10.4-16.4,16.7-3.4,4.7-8.7,8.1-11.9,9.8v-41.6h0Z"/><path class="a" d="M637.2,422.93h0l-29.8,17.2v-1.8L635.7,422Q636.75,422.63,637.2,422.93Z"/><polygon class="a" points="640 424.53 640 366.83 645.4 363.73 645.4 427.63 645.4 427.73 640 424.53"/><polygon class="a" points="645.4 427.73 607.4 449.63 607.4 443.33 640 424.53 645.4 427.73"/><path class="a" d="M637.2,422.93v-54.5l2.8-1.6v57.7l-32.6,18.8v-3.2l29.8-17.2h0Z"/><path class="a" d="M635.7,400.73V422h0l-28.3,16.3v-11a37.28,37.28,0,0,0,11.9-9.8C623.9,411.23,633.4,402.73,635.7,400.73Z"/><path class="a" d="M635.7,422v-52.7l1.5-.9v54.5q-0.45-.3-1.5-0.9h0Z"/><path class="a" d="M666.9,351.33L695.2,335v31.4c-2.3,2-11.8,10.4-16.4,16.7-3.4,4.7-8.7,8.1-11.9,9.8v-41.6h0Z"/><path class="a" d="M696.7,388.53h0l-29.8,17.2v-1.8l28.3-16.3C695.9,388,696.4,388.43,696.7,388.53Z"/><polygon class="a" points="699.5 390.13 699.5 332.43 705 329.33 705 393.33 705 393.33 699.5 390.13"/><polygon class="a" points="705 393.33 666.9 415.33 666.9 409.03 699.5 390.13 705 393.33"/><path class="a" d="M696.7,388.53V334l2.8-1.6v57.7l-32.6,18.8v-3.2l29.8-17.2h0Z"/><path class="a" d="M695.2,366.43v21.3h0L666.9,404V393a37.28,37.28,0,0,0,11.9-9.8C683.4,376.83,692.9,368.33,695.2,366.43Z"/><path class="a" d="M695.2,387.63v-52.7l1.5-.9v54.5c-0.3-.1-0.8-0.5-1.5-0.9h0Z"/><path class="a" d="M726.4,316.93l28.3-16.3V332c-2.3,2-11.8,10.4-16.4,16.7-3.4,4.7-8.7,8.1-11.9,9.8v-41.6h0Z"/><path class="a" d="M756.2,354.23h0l-29.8,17.2v-1.8l28.3-16.3A11.29,11.29,0,0,1,756.2,354.23Z"/><polygon class="a" points="759 355.83 759 298.13 764.5 294.93 764.5 358.93 764.5 358.93 759 355.83"/><polygon class="a" points="764.5 358.93 726.4 380.93 726.4 374.63 759 355.83 764.5 358.93"/><path class="a" d="M756.2,354.23v-54.5l2.8-1.6v57.7l-32.6,18.8v-3.2l29.8-17.2h0Z"/><path class="a" d="M754.7,332v21.3h0l-28.3,16.3v-11a37.28,37.28,0,0,0,11.9-9.8C742.9,342.43,752.5,334,754.7,332Z"/><path class="a" d="M754.7,353.33v-52.7l1.5-.9v54.5a11.29,11.29,0,0,0-1.5-.9h0Z"/><path class="a" d="M428.1,591.43l28.3-16.3v31.4c-2.3,2-11.8,10.4-16.4,16.7-3.4,4.7-8.7,8.1-11.9,9.8v-41.6h0Z"/><path class="a" d="M457.9,628.63h0l-29.8,17.2V644l28.3-16.3C457.1,628.13,457.7,628.53,457.9,628.63Z"/><polygon class="a" points="460.7 630.23 460.7 572.53 466.2 569.43 466.2 633.43 466.2 633.43 460.7 630.23"/><polygon class="a" points="466.2 633.43 428.1 655.33 428.1 649.13 460.7 630.23 466.2 633.43"/><path class="a" d="M457.9,628.63v-54.5l2.8-1.6v57.7L428.1,649v-3.2l29.8-17.2h0Z"/><path class="a" d="M456.4,606.53v21.3h0l-28.3,16.3v-11a37.28,37.28,0,0,0,11.9-9.8C444.6,616.93,454.2,608.43,456.4,606.53Z"/><path class="a" d="M456.4,627.73V575l1.5-.9v54.5c-0.2-.1-0.8-0.5-1.5-0.9h0Z"/><path class="a" d="M369.3,625.33L397.6,609v31.4c-2.3,2-11.8,10.4-16.4,16.7-3.4,4.7-8.7,8.1-11.9,9.8v-41.6Z"/><path class="a" d="M399.1,662.63h0l-29.8,17.2V678l28.3-16.3Q398.65,662.33,399.1,662.63Z"/><polygon class="a" points="401.9 664.23 401.9 606.53 407.3 603.43 407.3 667.43 407.3 667.43 401.9 664.23"/><polygon class="a" points="407.3 667.43 369.3 689.33 369.3 683.03 401.9 664.23 407.3 667.43"/><path class="a" d="M399.1,662.63v-54.5l2.8-1.6v57.7L369.3,683v-3.2l29.8-17.2h0Z"/><path class="a" d="M397.6,640.43v21.3h0L369.3,678V667a37.28,37.28,0,0,0,11.9-9.8C385.8,650.93,395.3,642.43,397.6,640.43Z"/><path class="a" d="M397.6,661.73V609l1.5-.9v54.5q-0.45-.3-1.5-0.9h0Z"/><path class="a" d="M488.3,556.63l28.3-16.3v31.4c-2.3,2-11.8,10.4-16.4,16.7-3.4,4.7-8.7,8.1-11.9,9.8v-41.6h0Z"/><path class="a" d="M518.1,593.93h0l-29.8,17.2v-1.8L516.6,593A11.3,11.3,0,0,1,518.1,593.93Z"/><polygon class="a" points="520.9 595.53 520.9 537.83 526.4 534.63 526.4 598.63 526.4 598.63 520.9 595.53"/><polygon class="a" points="526.4 598.63 488.3 620.63 488.3 614.33 520.9 595.53 526.4 598.63"/><path class="a" d="M518.1,593.93v-54.5l2.8-1.6v57.7l-32.6,18.8v-3.2l29.8-17.2h0Z"/><path class="a" d="M516.6,571.73V593h0l-28.3,16.3v-11a37.28,37.28,0,0,0,11.9-9.8C504.8,582.13,514.4,573.73,516.6,571.73Z"/><path class="a" d="M516.6,593v-52.7l1.5-.9v54.5a11.3,11.3,0,0,0-1.5-.9h0Z"/><path class="a" d="M547.9,522.23l28.3-16.3v31.4c-2.3,2-11.8,10.4-16.4,16.7-3.4,4.7-8.7,8.1-11.9,9.8v-41.6h0Z"/><path class="a" d="M577.7,559.53h0l-29.8,17.2v-1.8l28.3-16.3C576.8,559,577.4,559.33,577.7,559.53Z"/><polygon class="a" points="580.5 561.13 580.5 503.43 585.9 500.33 585.9 564.33 585.9 564.33 580.5 561.13"/><polygon class="a" points="585.9 564.33 547.9 586.23 547.9 579.93 580.5 561.13 585.9 564.33"/><path class="a" d="M577.7,559.53V505l2.8-1.6v57.7l-32.6,18.8v-3.2l29.8-17.2h0Z"/><path class="a" d="M576.1,537.33v21.3h0l-28.3,16.3v-11a37.28,37.28,0,0,0,11.9-9.8C564.3,547.83,573.9,539.33,576.1,537.33Z"/><path class="a" d="M576.1,558.63v-52.7l1.5-.9v54.5a11.3,11.3,0,0,0-1.5-.9h0Z"/><path class="a" d="M607.4,487.93l28.3-16.3V503c-2.3,2-11.8,10.4-16.4,16.7-3.4,4.7-8.7,8.1-11.9,9.8v-41.6h0Z"/><path class="a" d="M637.2,525.13h0l-29.8,17.2v-1.8l28.3-16.3A7.05,7.05,0,0,0,637.2,525.13Z"/><polygon class="a" points="640 526.83 640 469.13 645.4 465.93 645.4 529.93 645.4 529.93 640 526.83"/><polygon class="a" points="645.4 529.93 607.4 551.93 607.4 545.63 640 526.83 645.4 529.93"/><path class="a" d="M637.2,525.13v-54.5L640,469v57.8l-32.6,18.8v-3.2l29.8-17.3h0Z"/><path class="a" d="M635.7,503v21.3h0l-28.3,16.3v-11a37.28,37.28,0,0,0,11.9-9.8C623.9,513.43,633.4,505,635.7,503Z"/><path class="a" d="M635.7,524.33v-52.7l1.5-.9v54.5q-0.45-.3-1.5-0.9h0Z"/><path class="a" d="M666.9,453.53l28.3-16.3v31.4c-2.3,2-11.8,10.4-16.4,16.7-3.4,4.7-8.7,8.1-11.9,9.8v-41.6h0Z"/><path class="a" d="M696.7,490.83h0L666.9,508v-1.8l28.3-16.3Q696.25,490.53,696.7,490.83Z"/><polygon class="a" points="699.5 492.43 699.5 434.73 705 431.53 705 495.53 705 495.53 699.5 492.43"/><polygon class="a" points="705 495.53 666.9 517.53 666.9 511.23 699.5 492.43 705 495.53"/><path class="a" d="M696.7,490.83v-54.5l2.8-1.6v57.7l-32.6,18.8V508l29.8-17.2h0Z"/><path class="a" d="M695.2,468.63v21.3h0l-28.3,16.3v-11a37.28,37.28,0,0,0,11.9-9.8C683.4,479,692.9,470.63,695.2,468.63Z"/><path class="a" d="M695.2,489.93v-52.7l1.5-.9v54.5q-0.45-.3-1.5-0.9h0Z"/><path class="a" d="M726.4,419.13l28.3-16.3v31.4c-2.3,2-11.8,10.4-16.4,16.7-3.4,4.7-8.7,8.1-11.9,9.8v-41.6h0Z"/><path class="a" d="M756.2,456.43h0l-29.8,17.2v-1.8l28.3-16.3A11.3,11.3,0,0,1,756.2,456.43Z"/><polygon class="a" points="759 458.03 759 400.33 764.5 397.23 764.5 461.23 764.5 461.23 759 458.03"/><polygon class="a" points="764.5 461.23 726.4 483.13 726.4 476.83 759 458.03 764.5 461.23"/><path class="a" d="M756.2,456.43v-54.5l2.8-1.6V458l-32.6,18.8v-3.2l29.8-17.2h0Z"/><path class="a" d="M754.7,434.23v21.3h0l-28.3,16.3v-11a37.28,37.28,0,0,0,11.9-9.8C742.9,444.73,752.5,436.23,754.7,434.23Z"/><path class="a" d="M754.7,455.53v-52.7l1.5-.9v54.5a11.3,11.3,0,0,0-1.5-.9h0Z"/><path class="a" d="M435.7,686l28.3-16.3v31.4c-2.3,2-11.8,10.4-16.4,16.7-3.4,4.7-8.7,8.1-11.9,9.8V686h0Z"/><path class="a" d="M465.5,723.33h0l-29.8,17.2v-1.8l28.3-16.3A11.29,11.29,0,0,1,465.5,723.33Z"/><polygon class="a" points="468.3 724.93 468.3 667.23 473.8 664.03 473.8 728.03 473.8 728.03 468.3 724.93"/><polygon class="a" points="473.8 728.03 435.7 750.03 435.7 743.73 468.3 724.93 473.8 728.03"/><path class="a" d="M465.5,723.33v-54.5l2.8-1.6v57.7l-32.6,18.8v-3.2l29.8-17.2h0Z"/><path class="a" d="M464,701.13v21.3h0l-28.3,16.3v-11a37.28,37.28,0,0,0,11.9-9.8C452.2,711.53,461.7,703.13,464,701.13Z"/><path class="a" d="M464,722.43v-52.7l1.5-.9v54.5a11.3,11.3,0,0,0-1.5-.9h0Z"/><path class="a" d="M376.9,720l28.3-16.3v31.4c-2.3,2-11.8,10.4-16.4,16.7-3.4,4.7-8.7,8.1-11.9,9.8V720Z"/><path class="a" d="M406.7,757.23h0l-29.8,17.2v-1.8l28.3-16.3A7.06,7.06,0,0,0,406.7,757.23Z"/><polygon class="a" points="409.5 758.93 409.5 701.23 414.9 698.03 414.9 762.03 414.9 762.03 409.5 758.93"/><polygon class="a" points="414.9 762.03 376.9 784.03 376.9 777.73 409.5 758.93 414.9 762.03"/><path class="a" d="M406.7,757.23v-54.5l2.8-1.6v57.7l-32.6,18.8v-3.2l29.8-17.2h0Z"/><path class="a" d="M405.2,735.13v21.3h0l-28.3,16.3v-11a37.28,37.28,0,0,0,11.9-9.8C393.4,745.53,402.9,737.13,405.2,735.13Z"/><path class="a" d="M405.2,756.43v-52.7l1.5-.9v54.5q-0.45-.3-1.5-0.9h0Z"/><path class="a" d="M495.9,651.33L524.2,635v31.4c-2.3,2-11.8,10.4-16.4,16.7-3.4,4.7-8.7,8.1-11.9,9.8v-41.6h0Z"/><path class="a" d="M525.7,688.53h0l-29.8,17.2v-1.8l28.3-16.3C524.9,688,525.5,688.43,525.7,688.53Z"/><polygon class="a" points="528.5 690.13 528.5 632.43 534 629.33 534 693.33 534 693.33 528.5 690.13"/><polygon class="a" points="534 693.33 495.9 715.23 495.9 709.03 528.5 690.13 534 693.33"/><path class="a" d="M525.7,688.53V634l2.8-1.6v57.7l-32.6,18.8v-3.2l29.8-17.2h0Z"/><path class="a" d="M524.2,666.43v21.3h0L495.9,704V693a37.28,37.28,0,0,0,11.9-9.8C512.4,676.83,522,668.33,524.2,666.43Z"/><path class="a" d="M524.2,687.63v-52.7l1.5-.9v54.5c-0.2-.1-0.8-0.5-1.5-0.9h0Z"/><path class="a" d="M555.5,616.93l28.3-16.3V632c-2.3,2-11.8,10.4-16.4,16.7-3.4,4.7-8.7,8.1-11.9,9.8v-41.6h0Z"/><path class="a" d="M585.2,654.13h0l-29.8,17.2v-1.8l28.3-16.3A11,11,0,0,0,585.2,654.13Z"/><polygon class="a" points="588.1 655.83 588.1 598.13 593.5 594.93 593.5 658.93 593.5 658.93 588.1 655.83"/><polygon class="a" points="593.5 658.93 555.5 680.93 555.5 674.63 588.1 655.83 593.5 658.93"/><path class="a" d="M585.2,654.13v-54.5L588,598v57.8l-32.6,18.8v-3.2l29.8-17.3h0Z"/><path class="a" d="M583.7,632v21.3h0l-28.3,16.3v-11a37.28,37.28,0,0,0,11.9-9.8C571.9,642.43,581.5,634,583.7,632Z"/><path class="a" d="M583.7,653.33v-52.7l1.5-.9v54.5a11.3,11.3,0,0,0-1.5-.9h0Z"/><path class="a" d="M615,582.53l28.3-16.3v31.4c-2.3,2-11.8,10.4-16.4,16.7-3.4,4.7-8.7,8.1-11.9,9.8v-41.6h0Z"/><path class="a" d="M644.8,619.83h0L615,637v-1.8l28.3-16.3Q644.35,619.53,644.8,619.83Z"/><polygon class="a" points="647.6 621.43 647.6 563.73 653 560.63 653 624.53 653 624.53 647.6 621.43"/><polygon class="a" points="653 624.53 615 646.53 615 640.23 647.6 621.43 653 624.53"/><path class="a" d="M644.8,619.83v-54.5l2.8-1.6v57.7L615,640.23V637l29.8-17.2h0Z"/><path class="a" d="M643.3,597.63v21.3h0L615,635.23v-11a37.28,37.28,0,0,0,11.9-9.8C631.5,608,641,599.63,643.3,597.63Z"/><path class="a" d="M643.3,618.93v-52.7l1.5-.9v54.5q-0.45-.3-1.5-0.9h0Z"/><path class="a" d="M674.5,548.23l28.3-16.3v31.4c-2.3,2-11.8,10.4-16.4,16.7-3.4,4.7-8.7,8.1-11.9,9.8v-41.6h0Z"/><path class="a" d="M704.3,585.43h0l-29.8,17.2v-1.8l28.3-16.3C703.5,584.93,704,585.33,704.3,585.43Z"/><polygon class="a" points="707.1 587.03 707.1 529.33 712.6 526.23 712.6 590.23 712.6 590.23 707.1 587.03"/><polygon class="a" points="712.6 590.23 674.5 612.13 674.5 605.93 707.1 587.03 712.6 590.23"/><path class="a" d="M704.3,585.43v-54.5l2.8-1.6V587l-32.6,18.8v-3.2l29.8-17.2h0Z"/><path class="a" d="M702.8,563.33v21.3h0l-28.3,16.3v-11a37.28,37.28,0,0,0,11.9-9.8C691,573.73,700.5,565.23,702.8,563.33Z"/><path class="a" d="M702.8,584.53v-52.7l1.5-.9v54.5c-0.3-.1-0.8-0.5-1.5-0.9h0Z"/><path class="a" d="M734,513.83l28.3-16.3v31.4c-2.3,2-11.8,10.4-16.4,16.7-3.4,4.7-8.7,8.1-11.9,9.8v-41.6h0Z"/><path class="a" d="M763.8,551h0L734,568.23v-1.8l28.3-16.3A11,11,0,0,0,763.8,551Z"/><polygon class="a" points="766.6 552.73 766.6 495.03 772.1 491.83 772.1 555.83 772.1 555.83 766.6 552.73"/><polygon class="a" points="772.1 555.83 734 577.83 734 571.53 766.6 552.73 772.1 555.83"/><path class="a" d="M763.8,551v-54.5l2.8-1.6v57.7L734,571.43v-3.2L763.8,551h0Z"/><path class="a" d="M762.3,528.93v21.3h0L734,566.53v-11a37.28,37.28,0,0,0,11.9-9.8C750.5,539.33,760.1,530.93,762.3,528.93Z"/><path class="a" d="M762.3,550.23v-52.7l1.5-.9v54.5a11.29,11.29,0,0,0-1.5-.9h0Z"/><path class="a" d="M435.7,788.33L464,772v31.4c-2.3,2-11.8,10.4-16.4,16.7-3.4,4.7-8.7,8.1-11.9,9.8v-41.6h0Z"/><path class="a" d="M465.5,825.53h0l-29.8,17.2v-1.8l28.3-16.3C464.7,825,465.3,825.43,465.5,825.53Z"/><polygon class="a" points="468.3 827.13 468.3 769.43 473.8 766.33 473.8 830.33 473.8 830.33 468.3 827.13"/><polygon class="a" points="473.8 830.33 435.7 852.23 435.7 845.93 468.3 827.13 473.8 830.33"/><path class="a" d="M465.5,825.53V771l2.8-1.6v57.7l-32.6,18.8v-3.2l29.8-17.2h0Z"/><path class="a" d="M464,803.43v21.3h0L435.7,841V830a37.28,37.28,0,0,0,11.9-9.8C452.2,813.83,461.7,805.33,464,803.43Z"/><path class="a" d="M464,824.63v-52.7l1.5-.9v54.5c-0.2-.1-0.8-0.5-1.5-0.9h0Z"/><path class="a" d="M376.9,822.23l28.3-16.3v31.4c-2.3,2-11.8,10.4-16.4,16.7-3.4,4.7-8.7,8.1-11.9,9.8v-41.6Z"/><path class="a" d="M406.7,859.53h0l-29.8,17.2v-1.8l28.3-16.3Q406.25,859.23,406.7,859.53Z"/><polygon class="a" points="409.5 861.13 409.5 803.43 414.9 800.33 414.9 864.23 414.9 864.33 409.5 861.13"/><polygon class="a" points="414.9 864.33 376.9 886.23 376.9 879.93 409.5 861.13 414.9 864.33"/><path class="a" d="M406.7,859.53V805l2.8-1.6v57.7l-32.6,18.8v-3.2l29.8-17.2h0Z"/><path class="a" d="M405.2,837.33v21.3h0l-28.3,16.3v-11a37.28,37.28,0,0,0,11.9-9.8C393.4,847.73,402.9,839.33,405.2,837.33Z"/><path class="a" d="M405.2,858.63v-52.7l1.5-.9v54.5q-0.45-.3-1.5-0.9h0Z"/><path class="a" d="M495.9,753.53l28.3-16.3v31.4c-2.3,2-11.8,10.4-16.4,16.7-3.4,4.7-8.7,8.1-11.9,9.8v-41.6h0Z"/><path class="a" d="M525.7,790.83h0L495.9,808v-1.8l28.3-16.3A11.29,11.29,0,0,1,525.7,790.83Z"/><polygon class="a" points="528.5 792.43 528.5 734.73 534 731.53 534 795.53 534 795.53 528.5 792.43"/><polygon class="a" points="534 795.53 495.9 817.53 495.9 811.23 528.5 792.43 534 795.53"/><path class="a" d="M525.7,790.83v-54.5l2.8-1.6v57.7l-32.6,18.8V808l29.8-17.2h0Z"/><path class="a" d="M524.2,768.63v21.3h0l-28.3,16.3v-11a37.28,37.28,0,0,0,11.9-9.8C512.4,779,522,770.63,524.2,768.63Z"/><path class="a" d="M524.2,789.93v-52.7l1.5-.9v54.5a11.3,11.3,0,0,0-1.5-.9h0Z"/><path class="a" d="M555.5,719.13l28.3-16.3v31.4c-2.3,2-11.8,10.4-16.4,16.7-3.4,4.7-8.7,8.1-11.9,9.8v-41.6h0Z"/><path class="a" d="M585.2,756.43h0l-29.8,17.2v-1.8l28.3-16.3A11.3,11.3,0,0,1,585.2,756.43Z"/><polygon class="a" points="588.1 758.03 588.1 700.33 593.5 697.23 593.5 761.13 593.5 761.23 588.1 758.03"/><polygon class="a" points="593.5 761.23 555.5 783.13 555.5 776.83 588.1 758.03 593.5 761.23"/><path class="a" d="M585.2,756.43v-54.5l2.8-1.6V758l-32.5,18.8v-3.2l29.7-17.2h0Z"/><path class="a" d="M583.7,734.23v21.3h0l-28.2,16.3v-11a37.28,37.28,0,0,0,11.9-9.8C571.9,744.63,581.5,736.23,583.7,734.23Z"/><path class="a" d="M583.7,755.53v-52.7l1.5-.9v54.5a11.3,11.3,0,0,0-1.5-.9h0Z"/><path class="a" d="M615,684.83l28.3-16.3v31.4c-2.3,2-11.8,10.4-16.4,16.7-3.4,4.7-8.7,8.1-11.9,9.8v-41.6h0Z"/><path class="a" d="M644.8,722h0L615,739.23v-1.8l28.3-16.3C644,721.53,644.5,721.93,644.8,722Z"/><polygon class="a" points="647.6 723.63 647.6 665.93 653 662.83 653 726.83 653 726.83 647.6 723.63"/><polygon class="a" points="653 726.83 615 748.83 615 742.53 647.6 723.63 653 726.83"/><path class="a" d="M644.8,722v-54.5l2.8-1.6v57.7L615,742.43v-3.2L644.8,722h0Z"/><path class="a" d="M643.3,699.93v21.3h0L615,737.53v-11a37.28,37.28,0,0,0,11.9-9.8C631.5,710.33,641,701.83,643.3,699.93Z"/><path class="a" d="M643.3,721.13v-52.7l1.5-.9V722c-0.3-.1-0.8-0.5-1.5-0.9h0Z"/><path class="a" d="M674.5,650.43l28.3-16.3v31.4c-2.3,2-11.8,10.4-16.4,16.7-3.4,4.7-8.7,8.1-11.9,9.8v-41.6h0Z"/><path class="a" d="M704.3,687.73h0l-29.8,17.2v-1.8l28.3-16.3Q703.85,687.43,704.3,687.73Z"/><polygon class="a" points="707.1 689.33 707.1 631.63 712.6 628.43 712.6 692.43 712.6 692.43 707.1 689.33"/><polygon class="a" points="712.6 692.43 674.5 714.43 674.5 708.13 707.1 689.33 712.6 692.43"/><path class="a" d="M704.3,687.73v-54.5l2.8-1.6v57.7l-32.6,18.8v-3.2l29.8-17.2h0Z"/><path class="a" d="M702.8,665.53v21.3h0l-28.3,16.3v-11a37.28,37.28,0,0,0,11.9-9.8C691,675.93,700.5,667.53,702.8,665.53Z"/><path class="a" d="M702.8,686.83v-52.7l1.5-.9v54.5q-0.45-.3-1.5-0.9h0Z"/><path class="a" d="M734,616l28.3-16.3v31.4c-2.3,2-11.8,10.4-16.4,16.7-3.4,4.7-8.7,8.1-11.9,9.8V616h0Z"/><path class="a" d="M763.8,653.33h0L734,670.53v-1.8l28.3-16.3A11.29,11.29,0,0,1,763.8,653.33Z"/><polygon class="a" points="766.6 654.93 766.6 597.23 772.1 594.13 772.1 658.03 772.1 658.13 766.6 654.93"/><polygon class="a" points="772.1 658.13 734 680.03 734 673.73 766.6 654.93 772.1 658.13"/><path class="a" d="M763.8,653.33v-54.5l2.8-1.6v57.7L734,673.73v-3.2l29.8-17.2h0Z"/><path class="a" d="M762.3,631.13v21.3h0L734,668.73v-11a37.28,37.28,0,0,0,11.9-9.8C750.5,641.53,760.1,633.13,762.3,631.13Z"/><path class="a" d="M762.3,652.43v-52.7l1.5-.9v54.5a11.31,11.31,0,0,0-1.5-.9h0Z"/><path class="a" d="M428.1,386.93l28.3-16.3V402c-2.3,2-11.8,10.4-16.4,16.7-3.4,4.7-8.7,8.1-11.9,9.8v-41.6h0Z"/><path class="a" d="M457.9,424.13h0l-29.8,17.2v-1.8l28.3-16.3A11,11,0,0,0,457.9,424.13Z"/><polygon class="a" points="460.7 425.83 460.7 368.13 466.2 364.93 466.2 428.93 466.2 428.93 460.7 425.83"/><polygon class="a" points="466.2 428.93 428.1 450.93 428.1 444.63 460.7 425.83 466.2 428.93"/><path class="a" d="M457.9,424.13v-54.5l2.8-1.6v57.8l-32.6,18.8v-3.2l29.8-17.3h0Z"/><path class="a" d="M456.4,402v21.3h0l-28.3,16.3v-11a37.28,37.28,0,0,0,11.9-9.8C444.6,412.43,454.2,404,456.4,402Z"/><path class="a" d="M456.4,423.23v-52.7l1.5-.9v54.5a11,11,0,0,1-1.5-.9h0Z"/><path class="a" d="M369.3,420.93l28.3-16.3V436c-2.3,2-11.8,10.4-16.4,16.7-3.4,4.7-8.7,8.1-11.9,9.8v-41.6Z"/><path class="a" d="M399.1,458.13h0l-29.8,17.2v-1.8l28.3-16.3C398.3,457.63,398.8,458,399.1,458.13Z"/><polygon class="a" points="401.9 459.73 401.9 402.03 407.3 398.93 407.3 462.93 407.3 462.93 401.9 459.73"/><polygon class="a" points="407.3 462.93 369.3 484.83 369.3 478.63 401.9 459.73 407.3 462.93"/><path class="a" d="M399.1,458.13v-54.5l2.8-1.6v57.7l-32.6,18.8v-3.2l29.8-17.2h0Z"/><path class="a" d="M397.6,436v21.3h0l-28.3,16.3v-11a37.28,37.28,0,0,0,11.9-9.8C385.8,446.43,395.3,437.93,397.6,436Z"/><path class="a" d="M397.6,457.23v-52.7l1.5-.9v54.5c-0.3-.1-0.8-0.5-1.5-0.9h0Z"/><path class="a" d="M488.3,352.13l28.3-16.3v31.4c-2.3,2-11.8,10.4-16.4,16.7-3.4,4.7-8.7,8.1-11.9,9.8v-41.6h0Z"/><path class="a" d="M518.1,389.43h0l-29.8,17.2v-1.8l28.3-16.3A11.29,11.29,0,0,1,518.1,389.43Z"/><polygon class="a" points="520.9 391.03 520.9 333.33 526.4 330.23 526.4 394.13 526.4 394.13 520.9 391.03"/><polygon class="a" points="526.4 394.13 488.3 416.13 488.3 409.83 520.9 391.03 526.4 394.13"/><path class="a" d="M518.1,389.43v-54.5l2.8-1.6V391l-32.6,18.8v-3.2l29.8-17.2h0Z"/><path class="a" d="M516.6,367.23v21.3h0l-28.3,16.3v-11a37.28,37.28,0,0,0,11.9-9.8C504.8,377.63,514.4,369.23,516.6,367.23Z"/><path class="a" d="M516.6,388.53v-52.7l1.5-.9v54.5a11.29,11.29,0,0,0-1.5-.9h0Z"/><path class="a" d="M547.9,317.83l28.3-16.3v31.4c-2.3,2-11.8,10.4-16.4,16.7-3.4,4.7-8.7,8.1-11.9,9.8v-41.6h0Z"/><path class="a" d="M577.7,355h0l-29.8,17.2v-1.8l28.3-16.3A9.63,9.63,0,0,0,577.7,355Z"/><polygon class="a" points="580.5 356.63 580.5 298.93 585.9 295.83 585.9 359.83 585.9 359.83 580.5 356.63"/><polygon class="a" points="585.9 359.83 547.9 381.73 547.9 375.53 580.5 356.63 585.9 359.83"/><path class="a" d="M577.7,355v-54.5l2.8-1.6v57.7l-32.6,18.8v-3.2L577.7,355h0Z"/><path class="a" d="M576.1,332.93v21.3h0l-28.3,16.3v-11a37.28,37.28,0,0,0,11.9-9.8C564.3,343.33,573.9,334.83,576.1,332.93Z"/><path class="a" d="M576.1,354.13v-52.7l1.5-.9V355c-0.2-.1-0.8-0.5-1.5-0.9h0Z"/><path class="a" d="M607.4,283.43l28.3-16.3v31.4c-2.3,2-11.8,10.4-16.4,16.7-3.4,4.7-8.7,8.1-11.9,9.8v-41.6h0Z"/><path class="a" d="M637.2,320.63h0l-29.8,17.3v-1.8l28.3-16.3A12,12,0,0,0,637.2,320.63Z"/><polygon class="a" points="640 322.33 640 264.63 645.4 261.43 645.4 325.43 645.4 325.43 640 322.33"/><polygon class="a" points="645.4 325.43 607.4 347.43 607.4 341.13 640 322.33 645.4 325.43"/><path class="a" d="M637.2,320.63v-54.5l2.8-1.6v57.7l-32.6,18.9v-3.2l29.8-17.3h0Z"/><path class="a" d="M635.7,298.53v21.3h0l-28.3,16.3v-11a37.28,37.28,0,0,0,11.9-9.8C623.9,308.93,633.4,300.53,635.7,298.53Z"/><path class="a" d="M635.7,319.83v-52.7l1.5-.9v54.5q-0.45-.3-1.5-0.9h0Z"/><path class="a" d="M666.9,249l28.3-16.3v31.4c-2.3,2-11.8,10.4-16.4,16.7-3.4,4.7-8.7,8.1-11.9,9.8V249h0Z"/><path class="a" d="M696.7,286.33h0l-29.8,17.2v-1.8l28.3-16.3Q696.25,286,696.7,286.33Z"/><polygon class="a" points="699.5 287.93 699.5 230.23 705 227.13 705 291.03 705 291.03 699.5 287.93"/><polygon class="a" points="705 291.03 666.9 313.03 666.9 306.73 699.5 287.93 705 291.03"/><path class="a" d="M696.7,286.33v-54.5l2.8-1.6v57.7l-32.6,18.8v-3.2l29.8-17.2h0Z"/><path class="a" d="M695.2,264.13v21.3h0l-28.3,16.3v-11a37.28,37.28,0,0,0,11.9-9.8C683.4,274.53,692.9,266.13,695.2,264.13Z"/><path class="a" d="M695.2,285.43v-52.7l1.5-.9v54.5q-0.45-.3-1.5-0.9h0Z"/><path class="a" d="M726.4,214.73l28.3-16.3v31.4c-2.3,2-11.8,10.4-16.4,16.7-3.4,4.7-8.7,8.1-11.9,9.8v-41.6h0Z"/><path class="a" d="M756.2,251.93h0l-29.8,17.2v-1.8L754.7,251C755.4,251.43,756,251.83,756.2,251.93Z"/><polygon class="a" points="759 253.53 759 195.83 764.5 192.73 764.5 256.73 764.5 256.73 759 253.53"/><polygon class="a" points="764.5 256.73 726.4 278.63 726.4 272.43 759 253.53 764.5 256.73"/><path class="a" d="M756.2,251.93v-54.5l2.8-1.6v57.7l-32.6,18.9v-3.2l29.8-17.3h0Z"/><path class="a" d="M754.7,229.83v21.3h0l-28.3,16.3v-11a37.28,37.28,0,0,0,11.9-9.8C742.9,240.23,752.5,231.73,754.7,229.83Z"/><path class="a" d="M754.7,251v-52.6l1.5-.9V252a9.32,9.32,0,0,0-1.5-1h0Z"/><path class="a" d="M428.1,284.63l28.3-16.3v31.4c-2.3,2-11.8,10.4-16.4,16.7-3.4,4.7-8.7,8.1-11.9,9.8v-41.6h0Z"/><path class="a" d="M457.9,321.93h0l-29.8,17.2v-1.8L456.4,321A11.29,11.29,0,0,1,457.9,321.93Z"/><polygon class="a" points="460.7 323.53 460.7 265.83 466.2 262.73 466.2 326.63 466.2 326.73 460.7 323.53"/><polygon class="a" points="466.2 326.73 428.1 348.63 428.1 342.33 460.7 323.53 466.2 326.73"/><path class="a" d="M457.9,321.93v-54.5l2.8-1.6v57.7l-32.6,18.8v-3.2l29.8-17.2h0Z"/><path class="a" d="M456.4,299.73V321h0l-28.3,16.3v-11a37.28,37.28,0,0,0,11.9-9.8C444.6,310.13,454.2,301.73,456.4,299.73Z"/><path class="a" d="M456.4,321v-52.7l1.5-.9v54.5a11.29,11.29,0,0,0-1.5-.9h0Z"/><path class="a" d="M369.3,318.63l28.3-16.3v31.4c-2.3,2-11.8,10.4-16.4,16.7-3.4,4.7-8.7,8.1-11.9,9.8v-41.6Z"/><path class="a" d="M399.1,355.93h0l-29.8,17.2v-1.8L397.6,355Q398.65,355.63,399.1,355.93Z"/><polygon class="a" points="401.9 357.53 401.9 299.83 407.3 296.63 407.3 360.63 407.3 360.63 401.9 357.53"/><polygon class="a" points="407.3 360.63 369.3 382.63 369.3 376.33 401.9 357.53 407.3 360.63"/><path class="a" d="M399.1,355.93v-54.5l2.8-1.6v57.7l-32.6,18.8v-3.2l29.8-17.2h0Z"/><path class="a" d="M397.6,333.73V355h0l-28.3,16.3v-11a37.28,37.28,0,0,0,11.9-9.8C385.8,344.13,395.3,335.73,397.6,333.73Z"/><path class="a" d="M397.6,355v-52.7l1.5-.9v54.5q-0.45-.3-1.5-0.9h0Z"/><path class="a" d="M488.3,249.93l28.3-16.3V265c-2.3,2-11.8,10.4-16.4,16.7-3.4,4.7-8.7,8.1-11.9,9.8v-41.6h0Z"/><path class="a" d="M518.1,287.13h0l-29.8,17.2v-1.8l28.3-16.3A11,11,0,0,0,518.1,287.13Z"/><polygon class="a" points="520.9 288.83 520.9 231.13 526.4 227.93 526.4 291.93 526.4 291.93 520.9 288.83"/><polygon class="a" points="526.4 291.93 488.3 313.93 488.3 307.63 520.9 288.83 526.4 291.93"/><path class="a" d="M518.1,287.13v-54.5l2.8-1.6v57.8l-32.6,18.8v-3.2l29.8-17.3h0Z"/><path class="a" d="M516.6,265v21.3h0l-28.3,16.3v-11a37.28,37.28,0,0,0,11.9-9.8C504.8,275.43,514.4,267,516.6,265Z"/><path class="a" d="M516.6,286.33v-52.7l1.5-.9v54.5a11.29,11.29,0,0,0-1.5-.9h0Z"/><path class="a" d="M547.9,215.53l28.3-16.3v31.4c-2.3,2-11.8,10.4-16.4,16.7-3.4,4.7-8.7,8.1-11.9,9.8v-41.6h0Z"/><path class="a" d="M577.7,252.83h0L547.9,270v-1.8l28.3-16.3C576.8,252.33,577.4,252.63,577.7,252.83Z"/><polygon class="a" points="580.5 254.43 580.5 196.73 585.9 193.53 585.9 257.53 585.9 257.53 580.5 254.43"/><polygon class="a" points="585.9 257.53 547.9 279.53 547.9 273.23 580.5 254.43 585.9 257.53"/><path class="a" d="M577.7,252.83v-54.5l2.8-1.6v57.7l-32.6,18.8V270l29.8-17.2h0Z"/><path class="a" d="M576.1,230.63v21.3h0l-28.3,16.3v-11a37.28,37.28,0,0,0,11.9-9.8C564.3,241,573.9,232.63,576.1,230.63Z"/><path class="a" d="M576.1,251.93v-52.7l1.5-.9v54.5a11.29,11.29,0,0,0-1.5-.9h0Z"/><path class="a" d="M607.4,181.13l28.3-16.3v31.4c-2.3,2-11.8,10.4-16.4,16.7-3.4,4.7-8.7,8.1-11.9,9.8v-41.6h0Z"/><path class="a" d="M637.2,218.43h0l-29.8,17.2v-1.8l28.3-16.3Q636.75,218.13,637.2,218.43Z"/><polygon class="a" points="640 220.03 640 162.33 645.4 159.23 645.4 223.23 645.4 223.23 640 220.03"/><polygon class="a" points="645.4 223.23 607.4 245.13 607.4 238.83 640 220.03 645.4 223.23"/><path class="a" d="M637.2,218.43v-54.5l2.8-1.6V220l-32.6,18.8v-3.2l29.8-17.2h0Z"/><path class="a" d="M635.7,196.33v21.3h0l-28.3,16.2v-11a37.28,37.28,0,0,0,11.9-9.8C623.9,206.73,633.4,198.23,635.7,196.33Z"/><path class="a" d="M635.7,217.53v-52.7l1.5-.9v54.5q-0.45-.3-1.5-0.9h0Z"/><path class="a" d="M666.9,146.83l28.3-16.3v31.4c-2.3,2-11.8,10.4-16.4,16.7-3.4,4.7-8.7,8.1-11.9,9.8v-41.6h0Z"/><path class="a" d="M696.7,184h0l-29.8,17.2v-1.8l28.3-16.3A7.05,7.05,0,0,0,696.7,184Z"/><polygon class="a" points="699.5 185.73 699.5 128.03 705 124.83 705 188.83 705 188.83 699.5 185.73"/><polygon class="a" points="705 188.83 666.9 210.83 666.9 204.53 699.5 185.73 705 188.83"/><path class="a" d="M696.7,184v-54.5l2.8-1.6v57.7l-32.6,18.8v-3.2L696.7,184h0Z"/><path class="a" d="M695.2,161.93v21.3h0l-28.3,16.3v-11a37.28,37.28,0,0,0,11.9-9.8C683.4,172.33,692.9,163.93,695.2,161.93Z"/><path class="a" d="M695.2,183.23v-52.7l1.5-.9v54.5q-0.45-.3-1.5-0.9h0Z"/><path class="a" d="M726.4,112.43l28.3-16.3v31.4c-2.3,2-11.8,10.4-16.4,16.7-3.4,4.7-8.7,8.1-11.9,9.8v-41.6h0Z"/><path class="a" d="M756.2,149.73h0l-29.8,17.2v-1.8l28.3-16.3A11.29,11.29,0,0,1,756.2,149.73Z"/><polygon class="a" points="759 151.33 759 93.63 764.5 90.43 764.5 154.43 764.5 154.43 759 151.33"/><polygon class="a" points="764.5 154.43 726.4 176.43 726.4 170.13 759 151.33 764.5 154.43"/><path class="a" d="M756.2,149.73V95.23l2.8-1.6v57.7l-32.6,18.8v-3.2l29.8-17.2h0Z"/><path class="a" d="M754.7,127.53v21.3h0l-28.3,16.3v-11a37.28,37.28,0,0,0,11.9-9.8C742.9,137.93,752.5,129.53,754.7,127.53Z"/><path class="a" d="M754.7,148.83V96.13l1.5-.9v54.5a11.29,11.29,0,0,0-1.5-.9h0Z"/><polygon class="a" points="323.5 1010.73 2.5 825.43 2.5 114.93 323.6 300.23 323.5 1010.73"/><path class="a" d="M279.8,525.13l-28.2-16.3v31.4c2.3,2,11.8,10.4,16.4,16.7,3.4,4.7,8.7,8.1,11.9,9.8v-41.6h-0.1Z"/><path class="a" d="M250,562.33h0l29.8,17.2v-1.7l-28.3-16.3A7.57,7.57,0,0,1,250,562.33Z"/><polygon class="a" points="247.2 564.03 247.2 506.33 241.8 503.13 241.8 567.13 241.8 567.13 247.2 564.03"/><polygon class="a" points="241.8 567.13 279.8 589.13 279.8 582.83 247.2 564.03 241.8 567.13"/><path class="a" d="M250,562.33v-54.5l-2.8-1.6v57.7l32.6,18.8v-3.2L250,562.33h0Z"/><path class="a" d="M251.6,540.23v21.3h0l28.3,16.3v-11A37.28,37.28,0,0,1,268,557C263.4,550.63,253.8,542.23,251.6,540.23Z"/><path class="a" d="M251.6,561.43v-52.6l-1.5-.9v54.5c0.2-.2.8-0.5,1.5-1h0Z"/><path class="a" d="M214,487.13l-28.3-16.3v31.4c2.3,2,11.8,10.4,16.4,16.7,3.4,4.7,8.7,8.1,11.9,9.8v-41.6Z"/><path class="a" d="M184.2,524.33h0l29.8,17.2v-1.7l-28.3-16.3C185,523.83,184.5,524.23,184.2,524.33Z"/><polygon class="a" points="181.4 525.93 181.4 468.23 175.9 465.13 175.9 529.13 175.9 529.13 181.4 525.93"/><polygon class="a" points="175.9 529.13 214 551.03 214 544.83 181.4 525.93 175.9 529.13"/><path class="a" d="M184.2,524.33v-54.5l-2.8-1.6v57.7l32.6,18.8v-3.2l-29.8-17.2h0Z"/><path class="a" d="M185.7,502.23v21.3h0l28.3,16.3v-11a37.28,37.28,0,0,1-11.9-9.8C197.5,512.63,188,504.13,185.7,502.23Z"/><path class="a" d="M185.7,523.43v-52.7l-1.5-.9v54.5c0.3-.1.8-0.5,1.5-0.9h0Z"/><path class="a" d="M148.1,449l-28.3-16.3v31.4c2.3,2,11.8,10.4,16.4,16.7,3.4,4.7,8.7,8.1,11.9,9.8V449h0Z"/><path class="a" d="M118.4,486.33h0l29.8,17.2v-1.8l-28.3-16.3A11.29,11.29,0,0,0,118.4,486.33Z"/><polygon class="a" points="115.5 487.93 115.5 430.23 110.1 427.13 110.1 491.13 110.1 491.13 115.5 487.93"/><polygon class="a" points="110.1 491.13 148.1 513.03 148.1 506.73 115.5 487.93 110.1 491.13"/><path class="a" d="M118.4,486.33v-54.5l-2.8-1.6v57.7l32.6,18.8v-3.2l-29.8-17.2h0Z"/><path class="a" d="M119.9,464.13v21.3h0l28.3,16.3v-11a37.28,37.28,0,0,1-11.9-9.8C131.7,474.63,122.1,466.13,119.9,464.13Z"/><path class="a" d="M119.9,485.43v-52.7l-1.5-.9v54.5a11.3,11.3,0,0,1,1.5-.9h0Z"/><path class="a" d="M83.4,410.83l-28.3-16.3v31.4c2.3,2,11.8,10.4,16.4,16.7,3.4,4.7,8.7,8.1,11.9,9.8v-41.6h0Z"/><path class="a" d="M53.6,448.13h0l29.8,17.2v-1.8l-28.3-16.3A11.29,11.29,0,0,0,53.6,448.13Z"/><polygon class="a" points="50.8 449.73 50.8 392.03 45.3 388.93 45.3 452.83 45.3 452.93 50.8 449.73"/><polygon class="a" points="45.3 452.93 83.4 474.83 83.4 468.53 50.8 449.73 45.3 452.93"/><path class="a" d="M53.6,448.13v-54.5L50.8,392v57.7l32.6,18.8v-3.2l-29.8-17.2h0Z"/><path class="a" d="M55.1,425.93v21.3h0l28.3,16.3v-11a37.28,37.28,0,0,1-11.9-9.8C66.9,436.43,57.3,427.93,55.1,425.93Z"/><path class="a" d="M55.1,447.23v-52.7l-1.5-.9v54.5a11.28,11.28,0,0,1,1.5-.9h0Z"/><path class="a" d="M279.8,422.53l-28.3-16.3v31.4c2.3,2,11.8,10.4,16.4,16.7,3.4,4.7,8.7,8.1,11.9,9.8v-41.6Z"/><path class="a" d="M250,459.83h0L279.8,477v-1.8l-28.3-16.3C250.9,459.33,250.3,459.63,250,459.83Z"/><polygon class="a" points="247.2 461.43 247.2 403.73 241.8 400.53 241.8 464.53 241.8 464.53 247.2 461.43"/><polygon class="a" points="241.8 464.53 279.8 486.53 279.8 480.23 247.2 461.43 241.8 464.53"/><path class="a" d="M250,459.83v-54.5l-2.8-1.6v57.7l32.6,18.8V477L250,459.83h0Z"/><path class="a" d="M251.6,437.63v21.3h0l28.3,16.3v-11a37.28,37.28,0,0,1-11.9-9.8C263.4,448,253.8,439.63,251.6,437.63Z"/><path class="a" d="M251.6,458.93v-52.7l-1.5-.9v54.5a11.29,11.29,0,0,1,1.5-.9h0Z"/><path class="a" d="M214,384.53l-28.3-16.3v31.4c2.3,2,11.8,10.4,16.4,16.7,3.4,4.7,8.7,8.1,11.9,9.8v-41.6Z"/><path class="a" d="M184.2,421.83h0L214,439v-1.8l-28.3-16.3Q184.65,421.53,184.2,421.83Z"/><polygon class="a" points="181.4 423.43 181.4 365.73 175.9 362.53 175.9 426.53 175.9 426.53 181.4 423.43"/><polygon class="a" points="175.9 426.53 214 448.53 214 442.23 181.4 423.43 175.9 426.53"/><path class="a" d="M184.2,421.83v-54.5l-2.8-1.6v57.7l32.6,18.8V439l-29.8-17.2h0Z"/><path class="a" d="M185.7,399.63v21.3h0l28.3,16.3v-11a37.28,37.28,0,0,1-11.9-9.8C197.5,410,188,401.63,185.7,399.63Z"/><path class="a" d="M185.7,420.93v-52.7l-1.5-.9v54.5q0.45-.3,1.5-0.9h0Z"/><path class="a" d="M148.1,346.53l-28.3-16.3v31.4c2.3,2,11.8,10.4,16.4,16.7,3.4,4.7,8.7,8.1,11.9,9.8v-41.6h0Z"/><path class="a" d="M118.4,383.73h0l29.8,17.2v-1.8l-28.3-16.3A11,11,0,0,1,118.4,383.73Z"/><polygon class="a" points="115.5 385.43 115.5 327.73 110.1 324.53 110.1 388.53 110.1 388.53 115.5 385.43"/><polygon class="a" points="110.1 388.53 148.1 410.53 148.1 404.23 115.5 385.43 110.1 388.53"/><path class="a" d="M118.4,383.73v-54.5l-2.8-1.6v57.7l32.6,18.8v-3.2l-29.8-17.2h0Z"/><path class="a" d="M119.9,361.63v21.3h0l28.3,16.3v-11a37.28,37.28,0,0,1-11.9-9.8C131.7,372,122.1,363.63,119.9,361.63Z"/><path class="a" d="M119.9,382.93v-52.7l-1.5-.9v54.5a11.29,11.29,0,0,1,1.5-.9h0Z"/><path class="a" d="M83.4,308.33L55.1,292v31.4c2.3,2,11.8,10.4,16.4,16.7,3.4,4.7,8.7,8.1,11.9,9.8v-41.6h0Z"/><path class="a" d="M53.6,345.53h0l29.8,17.2v-1.8l-28.3-16.3A11,11,0,0,1,53.6,345.53Z"/><polygon class="a" points="50.8 347.13 50.8 289.43 45.3 286.33 45.3 350.33 45.3 350.33 50.8 347.13"/><polygon class="a" points="45.3 350.33 83.4 372.33 83.4 366.03 50.8 347.13 45.3 350.33"/><path class="a" d="M53.6,345.53V291l-2.8-1.6v57.7l32.6,18.8v-3.2l-29.8-17.2h0Z"/><path class="a" d="M55.1,323.43v21.3h0L83.4,361V350a37.28,37.28,0,0,1-11.9-9.8C66.9,333.83,57.3,325.33,55.1,323.43Z"/><path class="a" d="M55.1,344.63v-52.7l-1.5-.9v54.5a11,11,0,0,0,1.5-.9h0Z"/><path class="a" d="M279.8,319.93l-28.3-16.3V335c2.3,2,11.8,10.4,16.4,16.7,3.4,4.7,8.7,8.1,11.9,9.8v-41.6Z"/><path class="a" d="M250,357.23h0l29.8,17.2v-1.8l-28.3-16.3A9.63,9.63,0,0,1,250,357.23Z"/><polygon class="a" points="247.2 358.83 247.2 301.13 241.8 298.03 241.8 362.03 241.8 362.03 247.2 358.83"/><polygon class="a" points="241.8 362.03 279.8 383.93 279.8 377.63 247.2 358.83 241.8 362.03"/><path class="a" d="M250,357.23v-54.5l-2.8-1.6v57.7l32.6,18.8v-3.2L250,357.23h0Z"/><path class="a" d="M251.6,335.13v21.3h0l28.3,16.3v-11a37.28,37.28,0,0,1-11.9-9.8C263.4,345.53,253.8,337,251.6,335.13Z"/><path class="a" d="M251.6,356.33v-52.7l-1.5-.9v54.5c0.2-.1.8-0.5,1.5-0.9h0Z"/><path class="a" d="M214,281.93l-28.3-16.3V297c2.3,2,11.8,10.4,16.4,16.7,3.4,4.7,8.7,8.1,11.9,9.8v-41.6Z"/><path class="a" d="M184.2,319.23h0l29.8,17.2v-1.8l-28.3-16.3Q184.65,318.93,184.2,319.23Z"/><polygon class="a" points="181.4 320.83 181.4 263.13 175.9 260.03 175.9 323.93 175.9 324.03 181.4 320.83"/><polygon class="a" points="175.9 324.03 214 345.93 214 339.63 181.4 320.83 175.9 324.03"/><path class="a" d="M184.2,319.23v-54.5l-2.8-1.6v57.7l32.6,18.8v-3.2l-29.8-17.2h0Z"/><path class="a" d="M185.7,297v21.3h0l28.3,16.3v-11a37.28,37.28,0,0,1-11.9-9.8C197.5,307.43,188,299,185.7,297Z"/><path class="a" d="M185.7,318.33v-52.7l-1.5-.9v54.5q0.45-.3,1.5-0.9h0Z"/><path class="a" d="M148.1,243.93l-28.3-16.3V259c2.3,2,11.8,10.4,16.4,16.7,3.4,4.7,8.7,8.1,11.9,9.8v-41.6h0Z"/><path class="a" d="M118.4,281.23h0l29.8,17.2v-1.8l-28.3-16.3A11.29,11.29,0,0,0,118.4,281.23Z"/><polygon class="a" points="115.5 282.83 115.5 225.13 110.1 221.93 110.1 285.93 110.1 285.93 115.5 282.83"/><polygon class="a" points="110.1 285.93 148.1 307.93 148.1 301.63 115.5 282.83 110.1 285.93"/><path class="a" d="M118.4,281.23v-54.5l-2.8-1.6v57.7l32.6,18.8v-3.2l-29.8-17.2h0Z"/><path class="a" d="M119.9,259v21.3h0l28.3,16.3v-11a37.28,37.28,0,0,1-11.9-9.8C131.7,269.43,122.1,261,119.9,259Z"/><path class="a" d="M119.9,280.33v-52.7l-1.5-.9v54.5a11.29,11.29,0,0,1,1.5-.9h0Z"/><path class="a" d="M83.4,205.73l-28.3-16.3v31.4c2.3,2,11.8,10.4,16.4,16.7,3.4,4.7,8.7,8.1,11.9,9.8v-41.6h0Z"/><path class="a" d="M53.6,243h0l29.8,17.2v-1.8l-28.3-16.3A11.29,11.29,0,0,0,53.6,243Z"/><polygon class="a" points="50.8 244.63 50.8 186.93 45.3 183.73 45.3 247.73 45.3 247.73 50.8 244.63"/><polygon class="a" points="45.3 247.73 83.4 269.73 83.4 263.43 50.8 244.63 45.3 247.73"/><path class="a" d="M53.6,243v-54.5l-2.8-1.6v57.7l32.6,18.8v-3.2L53.6,243h0Z"/><path class="a" d="M55.1,220.83v21.3h0l28.3,16.3v-11a37.28,37.28,0,0,1-11.9-9.8C66.9,231.23,57.3,222.83,55.1,220.83Z"/><path class="a" d="M55.1,242.13v-52.7l-1.5-.9V243a11.3,11.3,0,0,1,1.5-.9h0Z"/><path class="a" d="M279.8,627.63l-28.3-16.3v31.4c2.3,2,11.8,10.4,16.4,16.7,3.4,4.7,8.7,8.1,11.9,9.8v-41.6Z"/><path class="a" d="M250,664.93h0l29.8,17.2v-1.8L251.5,664C250.9,664.43,250.3,664.73,250,664.93Z"/><polygon class="a" points="247.2 666.53 247.2 608.83 241.8 605.73 241.8 669.73 241.8 669.73 247.2 666.53"/><polygon class="a" points="241.8 669.73 279.8 691.63 279.8 685.33 247.2 666.53 241.8 669.73"/><path class="a" d="M250,664.93v-54.5l-2.8-1.6v57.7l32.6,18.8v-3.2L250,664.93h0Z"/><path class="a" d="M251.6,642.73V664h0l28.3,16.3v-11a37.28,37.28,0,0,1-11.9-9.8C263.4,653.23,253.8,644.73,251.6,642.73Z"/><path class="a" d="M251.6,664v-52.7l-1.5-.9v54.5a11.3,11.3,0,0,1,1.5-.9h0Z"/><path class="a" d="M214,589.63l-28.3-16.3v31.4c2.3,2,11.8,10.4,16.4,16.7,3.4,4.7,8.7,8.1,11.9,9.8v-41.6Z"/><path class="a" d="M184.2,626.93h0l29.8,17.2v-1.8L185.7,626Q184.65,626.63,184.2,626.93Z"/><polygon class="a" points="181.4 628.53 181.4 570.83 175.9 567.73 175.9 631.63 175.9 631.63 181.4 628.53"/><polygon class="a" points="175.9 631.63 214 653.63 214 647.33 181.4 628.53 175.9 631.63"/><path class="a" d="M184.2,626.93v-54.5l-2.8-1.6v57.7l32.6,18.8v-3.2l-29.8-17.2h0Z"/><path class="a" d="M185.7,604.73V626h0l28.3,16.3v-11a37.28,37.28,0,0,1-11.9-9.8C197.5,615.13,188,606.73,185.7,604.73Z"/><path class="a" d="M185.7,626v-52.7l-1.5-.9v54.5q0.45-.3,1.5-0.9h0Z"/><path class="a" d="M148.1,551.63l-28.3-16.3v31.4c2.3,2,11.8,10.4,16.4,16.7,3.4,4.7,8.7,8.1,11.9,9.8v-41.6h0Z"/><path class="a" d="M118.4,588.93h0l29.8,17.2v-1.8L119.9,588A11.3,11.3,0,0,0,118.4,588.93Z"/><polygon class="a" points="115.5 590.53 115.5 532.83 110.1 529.63 110.1 593.63 110.1 593.63 115.5 590.53"/><polygon class="a" points="110.1 593.63 148.1 615.63 148.1 609.33 115.5 590.53 110.1 593.63"/><path class="a" d="M118.4,588.93v-54.5l-2.8-1.6v57.7l32.6,18.8v-3.2l-29.8-17.2h0Z"/><path class="a" d="M119.9,566.73V588h0l28.3,16.3v-11a37.28,37.28,0,0,1-11.9-9.8C131.7,577.13,122.1,568.73,119.9,566.73Z"/><path class="a" d="M119.9,588v-52.7l-1.5-.9v54.5a11.3,11.3,0,0,1,1.5-.9h0Z"/><path class="a" d="M83.4,513.43l-28.3-16.3v31.4c2.3,2,11.8,10.4,16.4,16.7,3.4,4.7,8.7,8.1,11.9,9.8v-41.6h0Z"/><path class="a" d="M53.6,550.73h0l29.8,17.2v-1.8l-28.3-16.3A11.3,11.3,0,0,0,53.6,550.73Z"/><polygon class="a" points="50.8 552.33 50.8 494.63 45.3 491.43 45.3 555.43 45.3 555.43 50.8 552.33"/><polygon class="a" points="45.3 555.43 83.4 577.43 83.4 571.13 50.8 552.33 45.3 555.43"/><path class="a" d="M53.6,550.73v-54.5l-2.8-1.6v57.7l32.6,18.8v-3.2l-29.8-17.2h0Z"/><path class="a" d="M55.1,528.53v21.3h0l28.3,16.3v-11a37.28,37.28,0,0,1-11.9-9.8C66.9,538.93,57.3,530.53,55.1,528.53Z"/><path class="a" d="M55.1,549.83v-52.7l-1.5-.9v54.5a11.3,11.3,0,0,1,1.5-.9h0Z"/><path class="a" d="M279.8,729.33L251.5,713v31.4c2.3,2,11.8,10.4,16.4,16.7,3.4,4.7,8.7,8.1,11.9,9.8v-41.6Z"/><path class="a" d="M250,766.63h0l29.8,17.2V782l-28.3-16.3C250.9,766.13,250.3,766.43,250,766.63Z"/><polygon class="a" points="247.2 768.23 247.2 710.53 241.8 707.43 241.8 771.33 241.8 771.33 247.2 768.23"/><polygon class="a" points="241.8 771.33 279.8 793.33 279.8 787.03 247.2 768.23 241.8 771.33"/><path class="a" d="M250,766.63v-54.5l-2.8-1.6v57.7L279.8,787v-3.2L250,766.63h0Z"/><path class="a" d="M251.6,744.43v21.3h0L279.9,782V771a37.28,37.28,0,0,1-11.9-9.8C263.4,754.83,253.8,746.43,251.6,744.43Z"/><path class="a" d="M251.6,765.73V713l-1.5-.9v54.5a11.29,11.29,0,0,1,1.5-.9h0Z"/><path class="a" d="M214,691.33L185.7,675v31.4c2.3,2,11.8,10.4,16.4,16.7,3.4,4.7,8.7,8.1,11.9,9.8v-41.6Z"/><path class="a" d="M184.2,728.63h0l29.8,17.2V744l-28.3-16.3Q184.65,728.33,184.2,728.63Z"/><polygon class="a" points="181.4 730.23 181.4 672.53 175.9 669.33 175.9 733.33 175.9 733.33 181.4 730.23"/><polygon class="a" points="175.9 733.33 214 755.33 214 749.03 181.4 730.23 175.9 733.33"/><path class="a" d="M184.2,728.63v-54.5l-2.8-1.6v57.7L214,749v-3.2l-29.8-17.2h0Z"/><path class="a" d="M185.7,706.43v21.3h0L214,744V733a37.28,37.28,0,0,1-11.9-9.8C197.5,716.83,188,708.43,185.7,706.43Z"/><path class="a" d="M185.7,727.73V675l-1.5-.9v54.5q0.45-.3,1.5-0.9h0Z"/><path class="a" d="M148.1,653.33L119.8,637v31.4c2.3,2,11.8,10.4,16.4,16.7,3.4,4.7,8.7,8.1,11.9,9.8v-41.6h0Z"/><path class="a" d="M118.4,690.53h0l29.8,17.2v-1.8l-28.3-16.3A11,11,0,0,1,118.4,690.53Z"/><polygon class="a" points="115.5 692.23 115.5 634.53 110.1 631.33 110.1 695.33 110.1 695.33 115.5 692.23"/><polygon class="a" points="110.1 695.33 148.1 717.33 148.1 711.03 115.5 692.23 110.1 695.33"/><path class="a" d="M118.4,690.53V636l-2.8-1.6v57.7l32.6,18.8v-3.1l-29.8-17.3h0Z"/><path class="a" d="M119.9,668.43v21.3h0L148.2,706V695a37.28,37.28,0,0,1-11.9-9.8C131.7,678.83,122.1,670.43,119.9,668.43Z"/><path class="a" d="M119.9,689.73V637l-1.5-.9v54.5a11.29,11.29,0,0,1,1.5-.9h0Z"/><path class="a" d="M83.4,616l-28.3-16.3v31.4c2.3,2,11.8,10.4,16.4,16.7,3.4,4.7,8.7,8.1,11.9,9.8V616h0Z"/><path class="a" d="M53.6,653.23h0l29.8,17.2v-1.8l-28.3-16.3C54.4,652.73,53.8,653.13,53.6,653.23Z"/><polygon class="a" points="50.8 654.83 50.8 597.13 45.3 594.03 45.3 658.03 45.3 658.03 50.8 654.83"/><polygon class="a" points="45.3 658.03 83.4 679.93 83.4 673.73 50.8 654.83 45.3 658.03"/><path class="a" d="M53.6,653.23v-54.5l-2.8-1.6v57.7l32.6,18.8v-3.2l-29.8-17.2h0Z"/><path class="a" d="M55.1,631.13v21.3h0l28.3,16.3v-11a37.28,37.28,0,0,1-11.9-9.8C66.9,641.53,57.3,633,55.1,631.13Z"/><path class="a" d="M55.1,652.33v-52.7l-1.5-.9v54.5c0.2-.1.8-0.5,1.5-0.9h0Z"/><path class="a" d="M279.8,831.23l-28.2-16.4v31.4c2.3,2,11.8,10.4,16.4,16.7,3.4,4.7,8.7,8.1,11.9,9.8v-41.5h-0.1Z"/><path class="a" d="M250,868.43h0l29.8,17.2v-1.8l-28.3-16.3A9.63,9.63,0,0,1,250,868.43Z"/><polygon class="a" points="247.2 870.03 247.2 812.33 241.8 809.23 241.8 873.23 241.8 873.23 247.2 870.03"/><polygon class="a" points="241.8 873.23 279.8 895.23 279.8 888.93 247.2 870.03 241.8 873.23"/><path class="a" d="M250,868.43v-54.5l-2.8-1.6V870l32.6,18.8v-3.2L250,868.43h0Z"/><path class="a" d="M251.6,846.33v21.3h0l28.3,16.3v-11a37.28,37.28,0,0,1-11.9-9.8C263.4,856.73,253.8,848.23,251.6,846.33Z"/><path class="a" d="M251.6,867.53v-52.7l-1.5-.9v54.5c0.2-.1.8-0.5,1.5-0.9h0Z"/><path class="a" d="M214,793.13l-28.3-16.3v31.4c2.3,2,11.8,10.4,16.4,16.7,3.4,4.7,8.7,8.1,11.9,9.8v-41.6h0Z"/><path class="a" d="M184.2,830.43h0l29.8,17.2v-1.8l-28.3-16.3Q184.65,830.13,184.2,830.43Z"/><polygon class="a" points="181.4 832.03 181.4 774.33 175.9 771.23 175.9 835.23 175.9 835.23 181.4 832.03"/><polygon class="a" points="175.9 835.23 214 857.13 214 850.83 181.4 832.03 175.9 835.23"/><path class="a" d="M184.2,830.43v-54.5l-2.8-1.6V832l32.6,18.8v-3.2l-29.8-17.2h0Z"/><path class="a" d="M185.7,808.33v21.3h0l28.3,16.3v-11a37.28,37.28,0,0,1-11.9-9.8C197.5,818.73,188,810.23,185.7,808.33Z"/><path class="a" d="M185.7,829.53v-52.7l-1.5-.9v54.5q0.45-.3,1.5-0.9h0Z"/><path class="a" d="M148.1,755.13l-28.2-16.3v31.4c2.3,2,11.8,10.4,16.4,16.7,3.4,4.7,8.7,8.1,11.9,9.8v-41.6h-0.1Z"/><path class="a" d="M118.4,792.43h0l29.8,17.2v-1.8l-28.3-16.3A11.3,11.3,0,0,0,118.4,792.43Z"/><polygon class="a" points="115.5 794.03 115.5 736.33 110.1 733.23 110.1 797.13 110.1 797.23 115.5 794.03"/><polygon class="a" points="110.1 797.23 148.1 819.13 148.1 812.83 115.5 794.03 110.1 797.23"/><path class="a" d="M118.4,792.43v-54.5l-2.8-1.6V794l32.6,18.8v-3.2l-29.8-17.2h0Z"/><path class="a" d="M119.9,770.23v21.3h0l28.3,16.3v-11a37.28,37.28,0,0,1-11.9-9.8C131.7,780.63,122.1,772.23,119.9,770.23Z"/><path class="a" d="M119.9,791.53v-52.7l-1.5-.9v54.5a11.3,11.3,0,0,1,1.5-.9h0Z"/><path class="a" d="M83.4,717.63l-28.3-16.3v31.4c2.3,2,11.8,10.4,16.4,16.7,3.4,4.7,8.7,8.1,11.9,9.8v-41.6h0Z"/><path class="a" d="M53.6,754.93h0l29.8,17.2v-1.8L55.1,754A11.3,11.3,0,0,0,53.6,754.93Z"/><polygon class="a" points="50.8 756.53 50.8 698.83 45.3 695.73 45.3 759.73 45.3 759.73 50.8 756.53"/><polygon class="a" points="45.3 759.73 83.4 781.63 83.4 775.33 50.8 756.53 45.3 759.73"/><path class="a" d="M53.6,754.93v-54.5l-2.8-1.6v57.7l32.6,18.8v-3.2l-29.8-17.2h0Z"/><path class="a" d="M55.1,732.73V754h0l28.3,16.3v-11a37.28,37.28,0,0,1-11.9-9.8C66.9,743.23,57.3,734.73,55.1,732.73Z"/><path class="a" d="M55.1,754v-52.7l-1.5-.9v54.5a11.3,11.3,0,0,1,1.5-.9h0Z"/><polygon class="b" points="834.9 4.33 323.3 299.63 2.5 114.93 2.5 825.43 323.5 1010.73 834.9 714.83 834.9 4.33"/></svg>