<?xml version="1.0" encoding="utf-8"?>
<!-- Generator: Adobe Illustrator 19.0.0, SVG Export Plug-In . SVG Version: 6.00 Build 0)  -->
<svg version="1.1" id="Layer_1" xmlns="http://www.w3.org/2000/svg" xmlns:xlink="http://www.w3.org/1999/xlink" x="0px" y="0px"
	 viewBox="0 0 273 82" style="enable-background:new 0 0 273 82;" xml:space="preserve">
<style type="text/css">
	.st0{fill:#FFFFFF;}
</style>
<g id="XMLID_24_">
	<path id="XMLID_125_" class="st0" d="M58.8,48.5c0,2.8,1.8,5.2,4.9,5.2c2.9,0,4.9-2.2,4.9-5.2c0-2.9-1.9-5.2-4.9-5.2
		C60.6,43.4,58.8,45.7,58.8,48.5 M71.8,56.6h-3.5v-1.9c-1.1,1.4-2.8,2.4-5.1,2.4c-4.5,0-8-3.5-8-8.5c0-4.9,3.5-8.5,8-8.5
		c2.3,0,3.9,0.9,5.1,2.4v-1.9h3.5V56.6z"/>
	<path id="XMLID_124_" class="st0" d="M86.2,43.7h-6.2v7c0,2.2,1.1,3,2.6,3c1.1,0,2.3-0.5,3.2-1.1l1.4,2.8C86,56.3,84.3,57,82.3,57
		c-3.6,0-5.8-2-5.8-6.2v-7.1h-3.2v-3.2h3.2v-4.9h3.5v4.9h6.2V43.7z"/>
	<path id="XMLID_123_" class="st0" d="M92.2,42.4c1.3-1.8,3.3-2.3,4.9-2.3c3.8,0,6.5,2.6,6.5,6.4v10.1h-3.5v-9
		c0-2.7-1.4-4.2-3.7-4.2c-2.3,0-4.2,1.5-4.2,4.2v8.9h-3.5V32.4h3.5V42.4z"/>
	<path id="XMLID_120_" class="st0" d="M109.7,47.2h8.3c-0.4-2.5-1.8-4-4.1-4C111.4,43.2,110,44.8,109.7,47.2 M121.6,48.5
		c0,0.5,0,0.9-0.1,1.3h-11.9c0.5,2.9,2.5,4.1,4.8,4.1c1.6,0,3.3-0.6,4.7-1.7l1.7,2.5c-2,1.7-4.2,2.3-6.6,2.3c-4.8,0-8.2-3.4-8.2-8.5
		c0-5,3.3-8.5,8-8.5C118.5,40.1,121.6,43.5,121.6,48.5"/>
	<path id="XMLID_119_" class="st0" d="M139.1,46.5v10.1h-3.5v-9c0-2.7-1.4-4.2-3.7-4.2c-2.3,0-4.2,1.5-4.2,4.2v8.9h-3.5V40.5h3.5v2
		c1.3-1.9,3.3-2.4,4.9-2.4C136.3,40.1,139.1,42.7,139.1,46.5"/>
	<path id="XMLID_43_" class="st0" d="M145,48.5c0,2.8,1.8,5.2,4.9,5.2c2.9,0,4.9-2.2,4.9-5.2c0-2.9-1.9-5.2-4.9-5.2
		C146.8,43.4,145,45.7,145,48.5 M158,56.6h-3.5v-1.9c-1.1,1.4-2.8,2.4-5.1,2.4c-4.5,0-8-3.5-8-8.5c0-4.9,3.5-8.5,8-8.5
		c2.3,0,3.9,0.9,5.1,2.4v-1.9h3.5V56.6z"/>
	<path id="XMLID_42_" class="st0" d="M163.5,43.5c1.2-2.1,3.5-3,5.6-3c4,0,6.7,2.5,6.7,6.4v9.7h-1.9v-9.1c0-3.2-1.8-5.1-5.1-5.1
		c-3,0-5.3,2.1-5.3,5.2v9h-1.9V32.4h1.9V43.5z"/>
	<path id="XMLID_36_" class="st0" d="M180.4,47.7h11.3c-0.3-3.3-2.5-5.5-5.5-5.5C183,42.2,180.8,44.5,180.4,47.7 M193.7,48.6
		c0,0.3,0,0.6,0,0.8h-13.3c0.3,3.7,2.9,5.8,6.1,5.8c2.2,0,3.9-0.9,5.3-2.3l1,1.3c-2,2-4.2,2.6-6.5,2.6c-4.6,0-7.9-3.3-7.9-8.1
		c0-4.8,3.4-8.2,7.8-8.2C190.5,40.5,193.6,43.9,193.7,48.6"/>
	<path id="XMLID_33_" class="st0" d="M197.4,48.7c0,3.6,2.6,6.3,6.2,6.3c3.6,0,6.1-2.7,6.1-6.3c0-3.6-2.6-6.4-6.1-6.4
		C199.9,42.3,197.4,45.1,197.4,48.7 M211.5,56.6h-1.9v-3c-1.3,2-3.4,3.3-6.3,3.3c-4.4,0-7.9-3.4-7.9-8.1c0-4.7,3.5-8.2,7.9-8.2
		c2.9,0,5,1.3,6.3,3.3v-3h1.9V56.6z"/>
	<rect id="XMLID_32_" x="215.4" y="32.4" class="st0" width="1.9" height="24.2"/>
	<path id="XMLID_31_" class="st0" d="M232,42.5h-7.3v8.6c0,2.7,1.4,3.9,3.5,3.9c1.4,0,2.6-0.5,3.5-1.2l0.9,1.4
		c-1.1,0.9-2.7,1.6-4.6,1.6c-3.3,0-5.3-1.8-5.3-5.7v-8.6h-3.6v-1.7h3.6v-5.2h1.9v5.2h7.3V42.5z"/>
	<path id="XMLID_30_" class="st0" d="M236.4,43.5c1.2-2.1,3.5-3,5.6-3c4,0,6.7,2.5,6.7,6.4v9.7h-1.9v-9.1c0-3.2-1.8-5.1-5.1-5.1
		c-3,0-5.3,2.1-5.3,5.2v9h-1.9V32.4h1.9V43.5z"/>
	<path id="XMLID_29_" class="st0" d="M36.3,40.5c0,0-3.1-3.8-3.2-7.9c-0.1-4.1,2.9-7,2.9-7s3.1,3.8,3.2,7.9
		C39.3,37.6,36.3,40.5,36.3,40.5"/>
	<path id="XMLID_26_" class="st0" d="M41.3,34.8c0,1.1,0.9,2,2,2c1.1,0,2-0.9,2-2c0-1.1-0.9-2-2-2C42.2,32.8,41.3,33.7,41.3,34.8
		 M52.8,35.8c0,0,0.4,8.3-3.8,14c-4.1,5.7-11.2,6.6-11.2,6.6s-0.4-8.3,3.8-14C45.8,36.7,52.8,35.8,52.8,35.8"/>
	<path id="XMLID_25_" class="st0" d="M36.2,49L36.2,49C36.2,49,36.2,49,36.2,49c0-1.7-0.3-6.7-2.9-10.3c-3.2-4.4-8.6-5.1-8.6-5.1
		s-0.3,6.4,2.9,10.8c2.3,3.1,5.7,4.4,7.4,4.8v6.9c0,0.3,0.3,0.6,0.6,0.6c0.3,0,0.6-0.3,0.6-0.6v-6.9C36.2,49.2,36.2,49.1,36.2,49"/>
</g>
</svg>
