<svg xmlns="http://www.w3.org/2000/svg" viewBox="0 0 224.01 31.5"><defs><style>.a{fill:#fff;}</style></defs><title>logo_athena1</title><path class="a" d="M34.11,22.9c0,2.8,1.8,5.2,4.9,5.2a4.86,4.86,0,0,0,4.9-5.2c0-2.9-1.9-5.2-4.9-5.2a4.91,4.91,0,0,0-4.9,5.2m13,8.1h-3.5V29.1a6.27,6.27,0,0,1-5.1,2.4c-4.5,0-8-3.5-8-8.5s3.5-8.5,8-8.5a6.13,6.13,0,0,1,5.1,2.4V15h3.5V31Z"/><path class="a" d="M61.51,18.1h-6.2v7c0,2.2,1.1,3,2.6,3a6.15,6.15,0,0,0,3.2-1.1l1.4,2.8a8.19,8.19,0,0,1-4.9,1.6c-3.6,0-5.8-2-5.8-6.2V18.1h-3.2V14.9h3.2V10h3.5v4.9h6.2v3.2Z"/><path class="a" d="M67.51,16.8a5.87,5.87,0,0,1,4.9-2.3,6.17,6.17,0,0,1,6.5,6.4V31h-3.5V22c0-2.7-1.4-4.2-3.7-4.2a4,4,0,0,0-4.2,4.2v8.9H64V6.8h3.5v10Z"/><path class="a" d="M85,21.6h8.3c-0.4-2.5-1.8-4-4.1-4-2.5,0-3.9,1.6-4.2,4m11.9,1.3a5.28,5.28,0,0,1-.1,1.3H84.91a4.56,4.56,0,0,0,4.8,4.1,7.75,7.75,0,0,0,4.7-1.7l1.7,2.5a9.7,9.7,0,0,1-6.6,2.3c-4.8,0-8.2-3.4-8.2-8.5s3.3-8.5,8-8.5c4.5,0.1,7.6,3.5,7.6,8.5"/><path class="a" d="M114.41,20.9V31h-3.5V22c0-2.7-1.4-4.2-3.7-4.2A4,4,0,0,0,103,22v8.9h-3.5v-16H103v2a5.71,5.71,0,0,1,4.9-2.4,6.22,6.22,0,0,1,6.5,6.4"/><path class="a" d="M120.31,22.9c0,2.8,1.8,5.2,4.9,5.2a4.86,4.86,0,0,0,4.9-5.2c0-2.9-1.9-5.2-4.9-5.2a4.91,4.91,0,0,0-4.9,5.2m13,8.1h-3.5V29.1a6.27,6.27,0,0,1-5.1,2.4c-4.5,0-8-3.5-8-8.5s3.5-8.5,8-8.5a6.13,6.13,0,0,1,5.1,2.4V15h3.5V31Z"/><path class="a" d="M138.81,17.9a6.33,6.33,0,0,1,5.6-3c4,0,6.7,2.5,6.7,6.4V31h-1.9V21.9c0-3.2-1.8-5.1-5.1-5.1a5.07,5.07,0,0,0-5.3,5.2v9h-1.9V6.8h1.9V17.9Z"/><path class="a" d="M155.71,22.1H167c-0.3-3.3-2.5-5.5-5.5-5.5-3.2,0-5.4,2.3-5.8,5.5M169,23v0.8h-13.3a5.92,5.92,0,0,0,6.1,5.8,7.24,7.24,0,0,0,5.3-2.3l1,1.3a8.65,8.65,0,0,1-6.5,2.6c-4.6,0-7.9-3.3-7.9-8.1s3.4-8.2,7.8-8.2,7.4,3.4,7.5,8.1"/><path class="a" d="M172.71,23.1a6.07,6.07,0,0,0,6.2,6.3,6,6,0,0,0,6.1-6.3,6.15,6.15,0,1,0-12.3,0m14.1,7.9h-1.9V28a7.16,7.16,0,0,1-6.3,3.3,7.84,7.84,0,0,1-7.9-8.1,7.92,7.92,0,0,1,7.9-8.2,7.16,7.16,0,0,1,6.3,3.3v-3h1.9V31Z"/><rect class="a" x="190.71" y="6.8" width="1.9" height="24.2"/><path class="a" d="M207.31,16.9H200v8.6c0,2.7,1.4,3.9,3.5,3.9a5.68,5.68,0,0,0,3.5-1.2l0.9,1.4a7.28,7.28,0,0,1-4.6,1.6c-3.3,0-5.3-1.8-5.3-5.7V16.9h-3.6V15.2H198V10h1.9v5.2h7.3v1.7h0.1Z"/><path class="a" d="M211.71,17.9a6.33,6.33,0,0,1,5.6-3c4,0,6.7,2.5,6.7,6.4V31h-1.9V21.9c0-3.2-1.8-5.1-5.1-5.1a5.07,5.07,0,0,0-5.3,5.2v9h-1.9V6.8h1.9V17.9Z"/><path class="a" d="M11.61,14.9S8.51,11.1,8.41,7a10.34,10.34,0,0,1,2.9-7s3.1,3.8,3.2,7.9a10.34,10.34,0,0,1-2.9,7"/><path class="a" d="M16.61,9.2a2,2,0,1,0,2-2,2,2,0,0,0-2,2m11.5,1s0.4,8.3-3.8,14-11.2,6.6-11.2,6.6-0.4-8.3,3.8-14,11.2-6.6,11.2-6.6"/><path class="a" d="M11.51,23.4h0c0-1.7-.3-6.7-2.9-10.3A13.84,13.84,0,0,0,0,8s-0.3,6.4,2.9,10.8a13.38,13.38,0,0,0,7.4,4.8v6.9a0.6,0.6,0,1,0,1.2,0V23.4"/></svg>